<?xml version="1.0" encoding="iso-8859-1"?>
<!-- Generator: Adobe Illustrator 18.0.0, SVG Export Plug-In . SVG Version: 6.00 Build 0)  -->
<!DOCTYPE svg PUBLIC "-//W3C//DTD SVG 1.1//EN" "http://www.w3.org/Graphics/SVG/1.1/DTD/svg11.dtd">
<svg xmlns="http://www.w3.org/2000/svg" xmlns:xlink="http://www.w3.org/1999/xlink" version="1.1" id="Capa_1" x="0px" y="0px" viewBox="0 0 52.011 52.011" style="enable-background:new 0 0 52.011 52.011;" xml:space="preserve" width="512px" height="512px">
<g>
	<path d="M51.87,15.053c-0.802-5.711-4.793-9.168-9.474-10.371c-6.024-1.549-12.672,0.832-16.782,5.715   c-0.082-0.156-0.172-0.301-0.259-0.453c-0.003-0.059-0.321-0.949-0.658-1.047C18.87,0.486,5.832,1.072,1.259,10.85   c-3.136,6.705,0.155,15.082,3.679,20.771c4.568,7.375,11.609,13.049,18.687,17.248c0.331,0.195,0.628,0.137,0.86-0.037   c0.19,0.111,0.423,0.149,0.687,0.049c0.826-0.309,2.781-1.408,5.272-3.1c1.341-0.408,9.357-7.193,9.885-7.955   C46.99,31.488,53.016,23.209,51.87,15.053z M34.019,11.942c-0.149,0.418-0.292,0.84-0.417,1.279   c-0.656,2.309-1.257,4.619-1.875,6.926c-0.569,1.748-1.154,3.488-1.814,5.191c-0.277,0.715-0.564,1.426-0.857,2.133   c0.002-0.008,0.005-0.016,0.007-0.025c1.196-4.459,3.35-9.404,4.38-14.273C33.636,12.762,33.828,12.352,34.019,11.942z    M26.47,20.426c0.441-1.168,0.889-2.334,1.347-3.498c0.717-1.82,1.301-3.828,2.289-5.48c-1.343,4.234-2.803,8.445-4.24,12.646   C26.101,22.867,26.302,21.641,26.47,20.426z M18.534,6.723c-1.117,3.227-2.107,6.504-3.154,9.758   C16.32,13.178,17.205,9.854,18.534,6.723z M6.066,9.467c-0.872,1.744-1.605,3.633-2.36,5.283C4.18,12.94,4.935,10.983,6.066,9.467z    M4.881,16.631c1.5-2.75,2.798-7.498,5.089-9.611c-1.483,2.297-2.532,5.24-3.473,7.512c-0.389,0.941-0.828,1.846-1.289,2.746   C3.719,20.188,4.235,17.813,4.881,16.631z M11.701,7.74C11,11.367,8.737,15.279,7.121,18.502c0.276-0.769,0.521-1.563,0.733-2.389   C9.034,13.358,9.997,10.047,11.701,7.74z M6.396,25.819c0.047-0.299,0.105-0.639,0.179-1.061c0.413-1.338,0.908-2.639,1.485-3.9   c0.959-2.248,2.025-4.451,3.017-6.686c-0.23,0.699-0.463,1.398-0.687,2.1c-1.059,3.322-1.953,6.865-3.747,9.838   C6.573,25.99,6.49,25.893,6.396,25.819z M12.657,19.348c-1.11,3.271-2.172,8.102-3.907,11.457   c-0.092-0.422-0.175-0.846-0.257-1.268c0.045-0.078,0.091-0.135,0.136-0.219c1.736-3.242,2.066-7.067,3.58-10.432   c0.731-1.625,1.396-3.258,2.04-4.9C13.754,15.783,13.256,17.582,12.657,19.348z M15.175,24.264   c1.544-4.654,3.051-9.395,5.398-13.613c-0.346,3.074-1.579,6.234-2.88,9.107c-0.73,1.254-1.454,2.512-2.156,3.785   C15.409,23.777,15.296,24.024,15.175,24.264z M16.395,35.711c-0.21,0.393-0.431,0.779-0.659,1.16   c0.521-2.207,1.018-4.418,1.508-6.635c0.51-2.305,0.458-5.351,1.571-7.414c0.131-0.244,0.15-0.475,0.101-0.678   c0.508-1.258,1.045-2.5,1.62-3.723c0.617-1.037,1.235-2.076,1.854-3.115c-1.456,4.736-3.285,9.322-4.787,14.045   C16.937,31.449,16.652,33.526,16.395,35.711z M19.427,42.826c-0.228-0.146-0.447-0.307-0.663-0.471   c0.186-0.027,0.368-0.137,0.521-0.371c0.688-1.055,1.326-2.197,1.92-3.395C20.684,40.039,20.099,41.455,19.427,42.826z    M20.343,36.115c0.002-0.014,0.006-0.027,0.009-0.043c0.315-0.879,0.621-1.764,0.933-2.646c0.057-0.018,0.116-0.031,0.169-0.063   C21.106,34.305,20.739,35.229,20.343,36.115z M22.058,22.635c-0.162,0.334-0.305,0.682-0.459,1.02   c1.218-3.631,2.485-7.25,3.47-11.016c0.035,0,0.07,0.006,0.107,0.002c0.041,0.035,0.091,0.055,0.136,0.082   c-1.067,3.035-1.976,6.223-2.801,9.443C22.337,22.246,22.176,22.391,22.058,22.635z M25.064,35.803   c-0.164,0.709-0.295,1.438-0.419,2.172c-0.238,0.619-0.47,1.242-0.691,1.869c-0.293,0.828-0.341,1.959-0.163,2.988   c-0.142,0.643-0.305,1.277-0.502,1.895c-1.477-3.896,3.139-15.918,4.139-18.369c0.025-0.063,0.052-0.123,0.078-0.186   C26.62,29.36,25.806,32.572,25.064,35.803z M26.665,42.33c0.196-0.578,0.39-1.156,0.596-1.727   c1.891-5.242,3.575-10.643,5.207-15.99c0.329-1.078,0.617-2.176,0.893-3.281c0.043-0.123,0.091-0.244,0.135-0.367   c0.687-1.975,1.815-7.838,3.558-11.205c-1.212,4.043-1.874,8.4-3.227,12.385c-1.503,4.422-2.885,8.613-4.017,13.17   c-0.465,1.871-1.33,3.672-2.153,5.383C27.212,41.621,26.89,42.127,26.665,42.33z M29.955,42.131   c-0.086,0.068-0.151,0.146-0.206,0.229c0.815-1.314,1.588-2.658,2.313-4.035C31.663,39.799,31.106,41.217,29.955,42.131z    M32.421,33.336c0.598-2.541,1.113-4.977,1.791-6.781c1.638-4.369,3.342-8.934,4.178-13.586c0.147-0.969,0.321-1.93,0.521-2.885   c0.208-0.207,0.398-0.385,0.571-0.537c-0.623,4.24-2.903,13.135-3.137,13.869C35.256,26.824,33.917,30.123,32.421,33.336z    M38.41,26.574c0.893-4.834,2.127-9.404,3.486-14.096c0.332-1.144,0.835-2.914,0.757-4.443c1.772,2.723-3.74,17.969-4.402,19.883   c-0.099,0.285-0.201,0.6-0.307,0.938C38.105,28.1,38.268,27.346,38.41,26.574z M41.931,26.977c-0.783,3.52-1.646,7.088-3.712,9.986   c1.356-1.904,1.927-4.502,2.609-6.758c1.686-5.58,2.863-11.172,3.954-16.926c0.16-0.844,0.245-2.147,0.133-3.434   c0.011-0.113,0.02-0.225,0.025-0.338c0.153,0.322,0.328,0.619,0.554,0.91C46.186,14.842,42.547,24.211,41.931,26.977z    M49.38,21.549c0.231-3.111-0.048-6.441,0.104-8.744C50.461,15.375,50.308,18.414,49.38,21.549z" fill="#D80027"/>
</g>
<g>
</g>
<g>
</g>
<g>
</g>
<g>
</g>
<g>
</g>
<g>
</g>
<g>
</g>
<g>
</g>
<g>
</g>
<g>
</g>
<g>
</g>
<g>
</g>
<g>
</g>
<g>
</g>
<g>
</g>
</svg>
