<?xml version="1.0" encoding="iso-8859-1"?>
<!-- Generator: Adobe Illustrator 19.0.0, SVG Export Plug-In . SVG Version: 6.00 Build 0)  -->
<svg version="1.1" id="Layer_1" xmlns="http://www.w3.org/2000/svg" xmlns:xlink="http://www.w3.org/1999/xlink" x="0px" y="0px"
	 viewBox="0 0 511.999 511.999" style="enable-background:new 0 0 511.999 511.999;" xml:space="preserve">
<path style="fill:#FFFFFF;" d="M312.705,139.975c-2.04-7.369-2.951-14.974-4.905-22.357c-2.461-9.301-7.457-16.307-13.694-23.46
	c-4.627-5.306-8.213-11.379-12.961-16.592c-5.4-5.929-11.374-10.943-18.448-14.765c-6.162-3.329-11.623-6.91-17.341-10.955
	c-6.87-4.86-14.751-7.102-22.512-10.095c-8.744-3.372-18.184-6.383-27.601-6.915c-9.063-0.512-18.163,0.495-27.159,1.124
	c-4.512,0.316-9.335,0.65-14.057,1.409c-7.382-1.358-16.187-2.671-22.985,1.046c-6.32,3.455-11.683,8.37-17.456,12.593
	c-6.388,4.673-12.425,9.753-16.931,16.347c-3.945,5.772-6.203,12.488-8.659,19.021c-1.242,1.067-2.434,2.202-3.539,3.446
	c-4.867,5.472-7.766,11.849-10.059,18.738c-2.35,7.064-4.782,13.438-5.325,20.97c-1.088,15.115-3.261,29.402-0.368,44.508
	c-0.004,5.155,0.299,10.252,1.042,15.189c2.221,14.77,3.413,29.615,11.393,42.732c1.988,3.269,4.263,6.063,6.753,8.924
	c1.454,1.671,3.264,4.728,5.011,6.921c5.002,6.28,10.742,12.834,17.286,17.509c11.849,8.465,24.23,18.261,38.05,23.46
	c6.983,2.626,13.747,5.645,20.898,7.757c8.234,2.432,16.387,3.701,24.998,4.121c14.721,0.719,30.253-4.749,43.842-9.929
	c6.865-2.617,13.583-6.827,18.934-11.866c4.051-3.815,9.483-7.457,14.092-11.759c2.722-2.541,4.919-5.38,7.825-7.778
	c2.742-2.262,5.611-4.408,8.039-7.02c5.576-5.996,11.42-12.961,15.222-20.211c7.466-14.241,14.952-29.272,16.594-45.487
	C320.258,171.115,316.806,154.791,312.705,139.975z M109.254,229.062c-1.513-2.524-3.558-3.893-5.375-5.971
	c-0.917-1.048-1.693-2.179-2.39-3.351c2.262-0.307,4.345-1.151,6.208-2.38c0.018,0.136,0.029,0.27,0.048,0.406
	c0.786,5.845,2.378,12.369,5.761,17.154C111.825,233.033,110.56,231.243,109.254,229.062z M121.028,242.844
	c-1.519-1.43-2.973-2.963-4.406-4.51c2.378,1.986,5.352,3.279,9.08,3.502c0.207,1.005,0.426,2.008,0.667,3.007
	c0.204,0.843,0.437,1.712,0.695,2.596C124.99,245.849,122.919,244.623,121.028,242.844z M213.931,272.957
	c1.081-0.705,2.124-1.493,3.127-2.351c0.563,0.309,1.128,0.617,1.704,0.891C217.13,271.984,215.512,272.465,213.931,272.957z
	 M263.962,97.241c-0.071-0.33-0.144-0.662-0.217-0.992c0.441,0.519,0.877,1.04,1.3,1.572
	C264.693,97.612,264.33,97.421,263.962,97.241z"/>
<path style="fill:#9E6226;" d="M467.432,421.633c-1.22-1.7-2.479-3.367-3.758-5.018c-0.847-1.597-1.976-3.025-3.359-4.221
	c-10.393-12.672-22.255-24.115-33.536-35.967c-3.702-3.891-6.486-7.516-9.424-11.177c-0.419-1.673-0.968-3.216-1.543-4.473
	c-3.44-7.521-9.651-13.527-14.7-19.988c-5.407-6.922-10.049-14.346-16.115-20.753c-6.633-7.006-13.344-14.127-20.205-20.876
	c-3.503-3.446-7.115-7.383-12.128-8.247c-1.187-0.205-2.359-0.231-3.521-0.153c-0.44-2.544-1.814-4.903-4.155-6.205
	c-7.239-4.029-14.849,0.549-20.275,5.626c-1.297,1.213-2.48,2.493-3.682,3.756c-1.37,1.2-2.773,2.358-4.19,3.494
	c-3.154,0.948-6.133,2.655-8.665,5.207c-2.723,2.743-5.284,5.621-7.691,8.622c-7.911,1.757-15.475,10.176-20.542,15.227
	c-6.009,5.99-16.927,14.795-14.032,24.304c0.735,2.415,2.267,3.97,4.078,4.762c-0.31,3.877-0.471,7.552,2.033,11.054
	c-0.033-0.046,0.807,1.105,1.348,1.788c0.129,0.448,0.427,1.219,0.43,1.227c0.655,2.685,2.758,4.713,4.365,6.86
	c2.64,3.53,5.609,6.627,8.147,10.227c2.773,3.935,4.968,8.41,8.547,11.697c6.84,6.282,12.012,13.925,19.607,19.63
	c7.437,5.587,14.301,11.924,20.935,18.442c6.462,6.349,13.116,12.589,19.553,18.184c3.65,3.172,7.593,5.672,10.981,8.88
	c3.463,3.28,7.011,6.516,10.591,9.661c2.914,2.559,5.279,5.573,7.9,8.407c2.97,3.212,4.435,6.678,7.224,10.107
	c4.906,6.026,12.594,9.376,20.35,7.246c3.75-1.029,6.074-3.624,9.115-5.72c2.02-1.392,4.394-2.215,6.529-3.4
	c1.915-1.064,3.566-2.606,5.442-3.674c3.332-1.897,6.074-2.545,8.788-5.593c2.069-2.324,3.783-5.338,4.594-8.364
	c0.042-0.159,0.059-0.304,0.092-0.459c1.612-1.215,3.251-2.417,4.976-3.557c4.233-2.797,8.965-4.964,12.719-8.457
	c3.216-2.991,7.63-5.47,9.408-9.675C477.624,440.683,472.955,429.327,467.432,421.633z"/>
<path style="fill:#C18140;" d="M464.37,421.149c-2.041-3.013-2.712-3.399-3.936-5.413c-1.345-2.213-2.4-4.607-3.777-6.801
	c-2.415-3.849-5.42-7.01-7.719-10.828c-2.737-4.546-5.893-8.734-9.292-12.81c-3.377-4.046-6.709-8.259-10.553-11.876
	c-3.111-2.927-6.64-5.012-9.411-7.997c-6.369-6.86-12.411-14.77-17.936-22.287c-4.754-6.467-10.13-12.714-13.935-19.875
	c-4.427-8.333-11.686-16.649-19.9-21.498c-4.595-2.713-9.735-7.581-15.306-9.362c-0.84-2.39-2.031-4.632-3.844-6.49
	c-7.27-7.454-16.691-4.416-24.214,0.561c-12.006,7.942-21.927,18.471-32.015,28.55c-4.772,4.769-5.587,14.255-0.083,18.949
	c2.753,13.572,9.507,25.075,17.67,36.112c4.121,5.571,8.053,11.489,13.387,16.002c4.92,4.162,10.944,6.98,15.832,11.143
	c4.736,4.034,7.229,9.334,11.341,13.926c4.432,4.949,9.396,10.512,14.514,15.519c9.058,8.861,19.466,15.37,28.181,24.217
	c5.05,5.127,10.612,10.778,17.819,12.762c0.937,0.258,1.823,0.365,2.674,0.385c1.757,2.814,3.313,5.269,5.314,7.587
	c0.069,0.198,0.146,0.411,0.24,0.654c-0.034-0.089,2.177,5.907,0.871,2.068c2.284,6.723,8.633,12.836,16.263,12.383
	c14.035-0.834,23.474-12.307,25.525-25.138c2.435-3.147,4.036-6.986,4.807-10.855c0.902-4.524,2.037-10.364,2.063-14.92
	C468.982,430.478,467.339,425.531,464.37,421.149z"/>
<path style="fill:#D4A375;" d="M447.617,421.626c-0.488-2.141-0.37-4.325-0.671-6.474c-0.406-2.908-1.729-5.72-2.947-8.369
	c-2.568-5.588-6.253-10.287-9.565-15.413c-3.402-5.266-6.297-10.506-10.127-15.544c-4.344-5.715-9.186-10.814-14.221-15.921
	c-9.107-9.237-19.593-16.968-29.756-24.983c-5.001-3.945-9.971-8.629-14.416-13.192c-4.194-4.304-9.499-9.188-11.477-14.94
	c-2.955-8.601-16.217-5.16-13.76,3.793c3.454,12.584,14.366,22.573,23.192,31.675c4.795,4.944,10.508,8.958,15.743,13.414
	c5.529,4.707,10.573,9.919,16.056,14.651c5.531,4.771,10.946,9.924,15.611,15.556c4.217,5.091,9.035,9.282,13.714,13.87
	c5.065,4.967,8.589,10.065,11.543,16.538c1.688,3.699,4.195,8.101,8.785,8.35C446.934,424.724,447.941,423.053,447.617,421.626z"/>
<path style="fill:#999999;" d="M320.384,281.589c-0.06-0.149-0.118-0.297-0.177-0.447c-1.944-4.907-5.86-7.259-11.159-6.335
	c-4.666,0.813-7.425,4.927-10.626,7.445c-4.512,3.552-10.107,6.038-14.196,10.185c-3.32,3.367-6.326,6.612-10.535,9.01
	c-5.401,3.077-9.678,5.598-10.221,12.451c-0.645,8.135,8.279,10.573,13.904,7.492c-0.02,0.151-0.039,0.302-0.059,0.453
	c2.757-1.81,6.188-2.98,9.074-4.88c4.069-2.679,8.155-6.127,11.357-9.741c2.691-3.037,6.105-5.812,9.436-8.135
	c2.229-1.554,4.223-3.05,5.95-5.153c0.574-0.699,1.531-1.461,1.366-1.657C318.82,290.766,322.254,286.313,320.384,281.589z"/>
<path style="fill:#808080;" d="M297.399,301.362c-0.735-5.467-5.417-9.783-11.063-9.767c-6.383,0.019-11.508,4.18-15.586,8.722
	c-1.179,1.314-2.184,2.79-3.215,4.215c1.233-1.702-0.857,1.091-1.324,1.924c-1.371,2.441-1.901,5.742-0.92,8.408
	c0.05,0.007,0.102,0.013,0.152,0.02c0.277,0.965,0.747,1.878,1.391,2.629c0.529,0.617,1.214,1.09,1.92,1.489
	c2.086,0.919,2.542,1.099,1.366,0.543c-1.281-0.608-0.718-0.382,1.691,0.68c3.537,0.952,6.587-0.034,9.661-1.753
	c2.013-1.125,3.818-2.195,5.68-3.569c0.444-0.328,1.153-0.691,1.638-1.09c0.18-0.03,0.362-0.054,0.541-0.089
	C294.833,312.745,298.08,306.436,297.399,301.362z"/>
<path style="fill:#999999;" d="M346.344,138.397c-1.761-8.449-4.521-15.692-8.165-23.469c-3.271-6.981-7.567-14.686-12.465-20.664
	c-1.87-2.282-3.927-4.313-5.697-6.643c-2.749-3.619-5.103-7.574-8.051-11.048c-4.104-4.836-7.689-10.408-12.272-14.742
	c-5.972-5.648-12.136-11.008-18.274-16.509c-3.044-2.727-6.2-5.124-9.508-7.521c-1.406-1.019-2.804-2.321-4.229-3.27
	c-0.815-0.543-4.861-3.416-1.313,0.001c-6.024-5.801-12.283-11.073-20.127-14.367c-6.214-2.61-12.56-5.995-19.162-7.452
	c-7.898-1.745-17.109-2.797-25.182-2.815c-7.122-0.015-14.124-1.938-21.28-1.78c-4.031,0.088-8.035,1.128-12.101,1.246
	c-5.213,0.152-10.288-0.057-15.48,0.489c-7.543,0.795-15.382,2.048-22.414,5.131c-4.108,1.801-8.151,3.701-12.199,5.614
	c-3.849,1.818-7.982,2.913-11.592,5.285c-5.316,3.49-10.819,6.78-15.784,10.801c-1.962,1.078-3.941,2.297-5.742,3.802
	c-4.001,3.342-6.902,7.432-9.658,11.836c-2.439,3.898-4.241,8.113-6.585,12.034c-2.392,4-5.202,7.848-7.067,12.153
	c-0.767,1.768-1.212,3.606-1.276,5.402c-2.189,0.692-4.106,2.098-5.101,4.228c-0.611,1.307-1.13,2.544-1.581,3.764
	c-1.815,4.517-3.34,9.106-4.763,13.795c-1.272,4.189-2.393,10.254-2.898,13.158c-0.382,2.194-0.199,4.106,0.376,5.718
	c-1.215,4.688-2.515,9.37-4.195,13.904c-2.707,7.304-3.374,14.647-4.699,22.283c-1.423,8.205-2.626,17.057-0.578,25.255
	c0.622,2.489,2.058,4.152,3.833,5.107c0.03,1.603,0.033,3.213-0.063,4.841c-0.314,5.354-0.78,10.261,0.426,15.545
	c1.956,8.582,3.968,17.544,7.242,25.737c2.856,7.15,7.417,14.847,11.892,21.096c5.138,7.175,9.165,14.185,15.77,20.12
	c3.222,2.896,5.778,6.354,9.103,9.183c3.455,2.939,6.805,5.909,10.368,8.606c3.878,2.934,6.934,5.433,11.571,7.161
	c1.034,0.385,2.111,0.64,3.202,0.842c1.974,1.413,4.003,2.782,6.107,4.106c14.379,9.049,32.815,17.184,50.273,18.567
	c7.776,0.616,16.222,0.996,24.549,1.079c4.725,0.047,9.244-0.636,13.919-1.227c4.587-0.581,7.466-0.993,10.799-1.466
	c5.472-0.779,10.543-2.928,15.515-5.273c3.788-1.788,7.612-3.07,11.193-5.262c7.142-4.368,13.982-9.199,20.986-13.775
	c3.954-2.583,6.671-5.126,10.785-7.749c3.675-2.343,7.407-4.087,10.74-7.091c2.941-2.65,5.196-5.776,7.162-9.102
	c1.992-0.978,3.859-1.968,5.832-3.486c2.977-2.288,5.641-4.782,8.339-7.38c2.782-2.679,4.968-5.08,6.79-8.518
	c1.496-2.825,4.007-4.33,6.128-6.652c1.399-1.531,2.784-3.219,3.856-4.989c0.286-0.472,1.136-2.252,1.626-3.367
	c0.797-1.081,2.485-3.63,2.732-4.051c1.164-1.986,2.05-4.313,2.662-6.537c0.044-0.16,0.083-0.34,0.125-0.508
	c3.26-5.892,4.997-12.445,6.491-19.072c1.608-7.127,2.318-14.114,4.737-21.057c2.814-8.074,4.956-17.458,5.451-25.984
	C347.899,155.212,348.035,146.507,346.344,138.397z M295.678,237.033c-2.23,2.673-3.607,5.446-4.851,8.466
	c-4.254,4.846-8.676,9.411-13.006,14.21c-1.192,1.321-2.547,3.02-3.676,4.702c-5.961,3.39-11.873,6.835-17.593,10.518
	c-5.992,3.858-11.724,8.224-17.931,12.318c-6.937,4.574-12.115,7.265-19.916,10.519c-6.413,2.674-14.354,3.223-21.197,3.922
	c-6.688,0.684-15.29,0.855-21.302,0.345c-3.839-0.326-8.008,0.13-11.796-0.596c-4.046-0.776-8.167-2.017-12.131-3.152
	c-3.973-1.137-7.91-2.388-11.813-3.747c-1.53-0.533-2.997-1.064-4.439-1.781c-0.712-0.354-1.384-0.801-2.102-1.151l-2.133-0.9
	c-0.05-0.037-0.088-0.066-0.143-0.107c-2.533-1.973-5.494-3.306-8.439-4.644c-0.528-0.741-1.11-1.455-1.773-2.133
	c-2.603-2.664-5.977-4.117-8.959-6.204c-6.02-4.215-11.861-9.213-16.893-14.675c-2.47-2.682-5.426-4.68-7.801-7.397
	c-2.362-2.702-3.88-5.893-5.94-8.814c-4.03-5.717-7.027-12.082-10.984-17.792c-3.738-5.396-5.784-12.608-7.685-19.047
	c-1.332-4.512-2.455-7.863-2.575-12.572c-0.125-4.925-0.529-9.644-1.146-14.514c-0.482-3.808-0.907-7.738-1.246-11.681
	c1.474-4.213,2.271-8.546,2.785-13.377c0.618-5.817,1.239-11.576,2.151-17.321c3.378-9.919,5.259-20.299,9.191-29.973
	c2.146-5.284,3.97-10.697,6.071-15.998c0.855-2.157,1.597-4.399,2.358-6.639c3.819-4.71,6.682-9.875,10.711-14.491
	c2.508-2.874,5.343-5.662,7.4-8.895c0.861-1.353,1.563-2.743,2.158-4.237c0.199-0.5,0.537-2.164,0.77-3.258
	c0.131-0.111,0.259-0.226,0.395-0.333c5.297-4.192,11.128-6.311,16.818-9.881c5.69-3.571,12.577-5.785,18.716-8.623
	c4.704-2.175,10.155-3.635,15.03-4.298c6.636-0.902,13.251-0.322,19.935-0.869c3.861-0.316,7.473-1.123,11.338-0.834
	c3.686,0.275,7.16,1.137,10.842,1.494c6.011,0.582,11.995,0.459,18.037,1.173c2.696,0.318,5.456,0.45,8.149,0.891
	c-0.773-0.013,3.63,1.339,4.34,1.598c1.956,0.712,3.877,1.305,5.777,2.171c5.841,2.658,9.549,4.385,14.627,8.038
	c0.423,0.304,0.78,0.555,1.094,0.77c0.314,0.402,0.783,0.957,1.48,1.728c1.098,1.219,1.45,1.712,3.217,2.823
	c2.843,1.786,5.58,3.531,8.313,5.552c10.02,7.409,20.142,16.642,27.545,26.612c3.778,5.088,7.753,9.837,11.282,15.113
	c3.633,5.43,7.992,9.905,11.404,15.467c1.78,2.9,3.598,5.834,5.336,8.753c1.447,2.431,2.247,5.182,3.733,7.583
	c3.435,5.554,4.788,13.655,4.902,20.209c0.145,8.278-0.313,15.586-1.98,23.694c-1.465,7.12-3.911,13.851-5.105,21.052
	c-0.988,5.955-2.037,11.598-3.786,17.201c-5.576,5.434-7.743,11.947-11.601,17.184C300.565,232.658,297.265,235.129,295.678,237.033
	z"/>
<g>
	<path style="fill:#808080;" d="M133.369,303.42c-2.511-5.348-7.263-7.921-10.936-12.344c-4.414-5.317-9.88-8.616-14.734-13.336
		c-4.586-4.46-9.508-7.944-14.558-11.781c-0.679-0.515-1.533-1.191-2.252-1.839c0.542,0.399-2.374-3.1-2.093-2.767
		c-1.773-2.111-3.597-4.159-5.338-6.305c-6.659-8.209-13.089-16.804-18.546-25.879c-3.294-5.477-6.196-11.433-8.107-17.483
		c-0.831-2.634-1.903-5.252-2.935-7.825c-0.419-1.043-0.955-2.014-1.515-2.962c0.699-2.229,1.355-4.473,1.739-6.805
		c1.046-6.348-0.011-13.159,0.033-19.637c0.084-12.609,0.669-24.817,2.885-37.217c1.131-6.327,3.325-12.469,4.881-18.699
		c1.547-6.191,2.311-13.428,4.837-19.257c2.311-5.335,5.108-10.512,6.966-16.054c0.877-2.616,1.529-5.309,2.381-7.935
		c0.521-1.606,0.248-4.315,0.919-5.659c1.104-2.214-1.946-4.009-3.317-1.939c-1.131,1.708-2.665,2.445-4.199,3.758
		c-2.188,1.873-3.84,4.467-5.567,6.745c-3.936,5.19-7.982,10.465-10.918,16.306c-3.055,6.077-3.977,13.475-5.662,20.02
		c-1.882,7.308-4.288,14.413-5.387,21.9c-0.96,6.541-2.215,12.649-2.239,19.327c-0.025,6.914-0.488,13.843-0.493,20.787
		c-0.005,6.925,0.197,13.626,2.22,20.313c1.604,5.303,1.604,12.069,5.161,16.47c0.889,1.101,2.301,0.399,2.791-0.645
		c0.117,0.736,0.214,1.479,0.283,2.227c0.604,6.559,1.414,12.878,3.822,19.08c4.199,10.819,9.46,21.374,16.002,30.965
		c3.276,4.804,6.289,9.498,10.766,13.256c4.66,3.912,9.935,7.011,14.564,11.048c5.338,4.654,11.576,7.959,17.292,12.11
		c2.503,1.817,4.724,3.569,7.573,4.832c3.33,1.478,6.257,1.647,9.758,2.331C132.542,309.132,134.686,306.222,133.369,303.42z"/>
	<path style="fill:#808080;" d="M239.015,303.932c-7.928,1.633-15.545,4.603-23.67,5.437c-3.949,0.405-7.525-0.61-11.457-0.717
		c-4.076-0.11-8.021,0.657-12.067,0.871c-4.807,0.255-9.541-0.419-14.329-0.275c-4.916,0.149-9.897,0.793-14.81,0.393
		c-4.879-0.397-9.402-2.211-14.152-3.188c-4.334-0.892-7.511-0.237-11.724,0.313c-1.935,0.252-2.556,2.383-0.969,3.579
		c1.074,0.81,1.464,3.102,2.325,4.226c1.32,1.723,3.226,3.228,5.148,4.265c4.483,2.418,10.234,4.114,15.179,5.202
		c5.554,1.221,11.276,1.345,16.936,1.599c5.77,0.26,11.482,1.117,17.272,0.921c9.376-0.316,18.649,0.623,27.819-1.52
		c4.804-1.123,9.753-3.789,13.476-7.098c2.832-2.517,6.869-6.013,8.533-9.443C243.735,306.009,241.755,303.368,239.015,303.932z"/>
	<path style="fill:#808080;" d="M211.411,30.358c-2.667-2.309-6.19-3.194-9.04-5.285c-2.928-2.148-5.728-5.211-9.361-6.175
		c-7.69-2.041-17.067,0.725-24.689,1.859c-14.342,2.136-28.23,6.77-41.312,12.803c-2.119,0.978-0.595,4.229,1.55,3.678
		c7.198-1.848,14.277-0.077,21.526-0.875c6.784-0.747,13.681-0.445,20.418-1.344c7.078-0.945,14.193-2.458,21.203-0.919
		c4.233,0.928,6.976-0.385,11.076-1.055c3.116-0.509,5.669,0.9,8.386-0.818C211.776,31.844,212.013,30.88,211.411,30.358z"/>
	<path style="fill:#808080;" d="M336.767,153.799c-0.858-9.454-1.971-18.542-5.318-27.536c-2.982-8.012-6.636-18.236-14.62-22.739
		c-3.514-1.982-8.189-1.135-10.376-4.898c-1.956-3.366-1.492-7.761-2.723-11.341c-1.42-4.125-3.625-8.414-6.249-11.892
		c-2.961-3.926-3.436-8.295-5.664-12.567c-2.297-4.404-6.115-7.847-10.177-10.557c-3.345-2.233-6.175-5.118-9.466-7.544
		c-7.343-5.415-14.991-9.666-23.747-12.315c-5.108-1.545-10.758-3.751-16.159-2.646c-2.019,0.413-3.654,1.507-5.553,2.076
		c-0.509,0.301-0.913,0.706-1.214,1.214c-0.534-0.727-1.257-1.124-2.173-1.19c-2.196-0.67-2.933,2.528-0.924,3.352
		c3.165,1.3,5.461,3.488,8.48,5.133c4.026,2.195,8.305,4.111,12.616,5.661c4.142,1.49,7.765,2.301,11.357,4.898
		c3.213,2.323,6.8,4.049,9.868,6.559c6.01,4.916,11.823,9.645,16.718,15.693c2.345,2.897,4.538,5.746,7.057,8.485
		c2.929,3.186,3.813,7.476,6.635,10.643c2.115,2.372,5.383,2.862,7.547,4.954c2.246,2.172,3.217,7.033,4.368,10.161
		c1.472,3.998,3.302,7.279,5.547,10.941c1.96,3.196,3.042,6.376,4.295,9.89c2.802,7.859,4.276,15.495,5.073,23.766
		c0.407,4.222,0.343,8.603,1.119,12.794c0.335,1.808,0.838,3.874,1.406,5.624c0.548,1.685,2.33,3.601,2.119,5.38
		c-0.358,3.03,3.871,4.304,5.778,2.393C338.721,171.843,337.507,161.947,336.767,153.799z"/>
</g>
<g>
	<path style="fill:#CCCCCC;" d="M229.479,221.52c-5.615-2.487-12.479-1.601-18.415-0.862c-11.838,1.473-23.228,4.97-35.225,3.481
		c-9.959-1.236-19.704-5.211-28.148-10.443c-5.519-14.494-6.191-31.995-13.475-46.568c-3.468-6.937-4.032-13.439-5.146-20.976
		c-1.192-8.069-6.324-16.112-15.83-13.939c-4.441,1.015-8.703,4.224-12.115,8.01c-1.336,0.644-2.533,1.651-3.433,3.087
		c-1.472,2.346-2.584,4.955-3.47,7.675c-3.236,7.085-4.74,14.146-4.923,22.232c-0.034,1.492,0.028,2.972,0.155,4.442
		c-0.254,4.378-0.125,8.766,0.589,13.321c1.171,7.47,3.152,15.256,6.797,21.946c1.693,3.109,4.039,5.866,5.99,8.818
		c2.154,3.261,4.058,6.832,7.154,9.307c0.043,0.102,0.078,0.206,0.122,0.308c6.888,15.961,18.539,30.514,34.7,37.759
		c16.257,7.288,38.141,6.21,55.235,2.468c0.34-0.075,0.679-0.169,1.019-0.255c3.398,2.182,7.717,3.297,11.397,1.755
		c12.14-5.087,21.262-17.452,25.316-27.725C241.052,237.04,239.807,226.095,229.479,221.52z"/>
	<path style="fill:#CCCCCC;" d="M240.795,216.667C240.445,218.094,240.273,218.928,240.795,216.667L240.795,216.667z"/>
	<path style="fill:#CCCCCC;" d="M273.126,205.383c-2.934-6.091-9.248-9.921-16.01-9.85c0.057,0.015,0.114,0.03,0.171,0.046
		c-2.879-0.075-5.613,0.719-8.055,2.297l0.289-0.288c-0.343,0.252-0.67,0.502-0.992,0.755c-0.03,0.022-0.06,0.047-0.09,0.069
		c-0.071,0.056-0.142,0.114-0.212,0.17c-0.614,0.468-1.208,0.985-1.775,1.56c-1.729,1.67-3.089,3.532-4.122,5.982
		c-1.163,2.756-1.372,5.386-1.161,8.097c0.021,0.282,0.026,0.56,0.035,0.839c-0.103,0.385-0.206,0.789-0.301,1.172
		c-0.952,4.489-0.125,10.062,3.604,13.191c3.794,3.181,7.869,5.172,12.931,5.112c7.272-0.085,13.72-4.779,16.496-11.357
		C276.499,217.093,275.982,211.312,273.126,205.383z"/>
	<path style="fill:#CCCCCC;" d="M240.795,216.667c0.034-0.141,0.07-0.287,0.108-0.437c0.018-0.084,0.032-0.17,0.05-0.253
		C240.893,216.236,240.842,216.46,240.795,216.667z"/>
</g>
<path d="M481.956,438.591c1.638-8.546-3.603-14.925-8.069-22.275c-2.547-4.19-5.546-7.939-8.8-11.595
	c-3.213-3.61-5.805-7.712-9.046-11.299c-2.922-3.234-6.232-6.313-8.952-9.691c-3.221-4-4.927-8.544-8.758-12.16
	c-6.769-6.39-11.644-14.789-17.204-22.226c-5.646-7.552-12.383-13.769-18.326-21.061c-2.94-3.609-6.001-7.368-9.365-10.589
	c-3.74-3.579-6.677-7.729-10.43-11.27c-6.498-6.134-11.047-14.466-18.966-19.124c-1.997-1.174-4.127-1.9-6.023-3.283
	c-2.36-1.721-4.409-3.672-7.01-5.067c-3.911-2.102-9.224-4.704-13.739-4.538c-3.845,0.142-7.863,2.46-11.4,4.306
	c-2.959-4.594-4.679-9.943-8.247-14.146c1.509-2.15,2.995-4.315,4.535-6.448c3.028-4.195,6.793-7.771,9.978-11.844
	c5.912-7.561,9.069-16.442,12.906-25.075c3.838-8.638,6.29-16.874,8.243-26.188c2.228-10.624,2.304-20.666,2.281-31.487
	c-0.021-10.105-2.709-20.524-5.064-30.332c-1.064-4.437-2.418-8.87-4.011-13.147c-0.67-1.797-1.79-3.336-2.538-5.036
	c-1.109-2.523-1.488-5.31-2.488-7.93c-3.422-8.972-8.581-16.691-13.586-24.789c-2.298-3.719-3.939-7.616-6.887-10.92
	c-3.179-3.562-6.923-6.541-10.076-10.145c-3.187-3.642-6.196-7.354-9.861-10.543c-4.114-3.582-8.64-6.652-12.549-10.47
	c-6.519-6.367-14.103-11.902-21.734-16.862C249.341,12.025,230.66,4.37,210.024,1.042c-11.474-1.851-23.428-0.679-35.006-0.64
	c-10.566,0.035-20.912,1.231-31.398,2.789c-10.774,1.602-21.529,4.79-31.059,10.134c-4.474,2.508-9.102,4.755-13.202,7.866
	c-1.668,1.266-3.202,2.666-4.673,4.131c-5.778,4.091-12.142,9.481-16.217,15.215c-2.234,3.144-3.96,6.526-6.362,9.573
	c-2.487,3.154-5.366,5.943-7.838,9.113c-5.04,6.461-9.268,12.392-12.289,20.028c-1.245,3.146-3.713,5.401-5.27,8.402
	c-1.939,3.736-3.558,7.747-4.932,11.722c-2.846,8.242-4.187,16.981-6.612,25.363c-4.607,15.926-6.642,33.458-6.058,50.027
	c0.626,17.735,4.482,34.442,9.885,51.264c2.769,8.62,6.068,15.798,10.549,23.596c3.784,6.585,6.652,13.928,12.179,19.257
	c5.44,5.244,8.889,12.687,13.954,18.456c5.276,6.009,11.122,12.766,17.853,17.156c13.585,8.862,27.139,18.139,42.574,23.608
	c18.072,6.403,39.037,9.264,58.165,7.541c4.386-0.395,8.518-1.954,12.906-2.228c4.293-0.269,8.61-0.686,12.789-1.77
	c3.358-0.871,6.714-1.884,9.992-3.097c0.903-0.064,1.809-0.149,2.725-0.276c4.839-0.672,8.592-2.803,13.072-4.5
	c5.072-1.92,9.663-4.779,14.064-7.964c2.24,4.34,4.412,9.569,7.684,12.606c-1.423,1.391-2.821,2.783-4.529,4.008
	c-11.45,8.21,0.502,19.012,3.575,28.435c4.009,12.296,11.978,23.633,20.878,32.838c9.005,9.314,15.577,20.762,24.782,29.852
	c4.203,4.151,9.094,7.387,13.185,11.742c4.676,4.978,8.956,10.305,13.725,15.208c9.644,9.917,18.505,20.469,28.448,30.117
	c4.633,4.496,9.326,8.932,13.818,13.571c4.364,4.507,9.025,8.087,13.051,12.857c10.182,12.062,21.573-0.93,30.869-6.841
	c5.889-3.746,11.813-6.818,17.362-11.174c5.745-4.51,11.471-9.069,17.168-13.64c5.27-4.229,10.399-8.772,14.202-14.411
	c1.994-2.956,3.866-6.155,5.273-9.435c0.574-1.338,1.282-7.136,2.072-7.634C483.496,442.574,483.347,439.997,481.956,438.591z
	 M254.253,301.074c-3.839,2.866-7.228,6.731-11.59,8.773c-0.869,0.406-1.728,0.871-2.585,1.356
	c-6.551,1.651-13.105,3.045-19.555,5.134c-7.208,2.335-14.402,2.241-21.687,3.922c-15.215,3.511-32.959,1.396-48.015-2.245
	c-14.542-3.516-27.882-10.055-40.061-18.661c-6.333-4.475-12.5-7.848-18-13.458c-5.421-5.529-10.87-10.939-14.914-17.589
	c-3.164-5.202-7.737-8.946-10.723-14.128c-3.819-6.628-8.587-13.277-11.699-20.264c-6.515-14.625-10.871-31.677-12.661-47.55
	c-1.786-15.834-0.669-31.561,1.836-47.238c1.219-7.632,3.846-14.963,5.461-22.516c1.686-7.891,3.224-15.694,6.861-22.993
	c1.569-3.148,4.121-5.51,5.451-8.814c1.444-3.584,2.397-7.004,4.437-10.343c4.257-6.97,9.923-12.892,14.634-19.524
	c2.119-2.982,3.528-6.417,5.669-9.351c2.682-3.678,6.584-7.151,9.872-10.305c4.162-3.99,9.028-6.812,13.832-9.747
	c9.031-4.069,18.376-7.379,28.176-9.26c8.731-1.675,17.688-2.37,26.46-3.515c8.936-1.167,18.783,0.087,27.837-0.047
	c19.206-0.282,38.723,5.42,55.609,14.511c15.757,8.484,29.504,21.025,42.87,32.748c6.626,5.811,12.527,13.035,18.609,19.437
	c2.685,2.826,4.017,6.307,6.018,9.597c2.332,3.836,5.018,7.434,7.136,11.402c2.068,3.874,4.333,7.955,5.633,12.163
	c0.681,2.206,0.8,4.523,1.68,6.67c0.66,1.611,1.81,2.87,2.54,4.423c3.731,7.941,4.833,17.52,6.481,26.05
	c3.637,18.838,1.698,37.484-3.641,55.829c-2.202,7.568-6.134,15.041-9.728,22.064c-4.374,8.548-10.862,14.616-16.479,22.248
	c-6.283,8.537-12.117,16.696-20.079,23.81c-3.792,3.388-7.831,6.469-11.569,9.922c-3.742,3.455-7.343,5.601-11.584,8.25
	C262.507,294.507,258.308,298.047,254.253,301.074z M265.469,311.52c1.433-1.12,2.858-2.247,4.288-3.357
	c3.502-2.722,7.156-4.647,10.797-7.106c4.097-2.767,7.495-6.472,11.207-9.702c6.702-5.828,13.336-11.336,19.115-17.986
	c1.754,2.775,3.392,5.628,5.319,8.216c0.855,1.147,1.797,1.708,2.14,2.404c-1.501,1.611-2.803,3.439-4.172,5.512
	c-0.156,0.236-0.261,0.474-0.344,0.711c-3.028,2.929-6.3,4.922-9.953,7.192c-3.486,2.166-6.102,5.417-9.491,7.701
	c-1.441,0.971-2.892,1.91-4.339,2.852c-0.565,0.173-1.084,0.493-1.497,0.981c-1.818,1.2-3.619,2.43-5.364,3.772
	c-1.899,1.461-3.824,2.924-5.625,4.507c-1.111,0.978-2.415,3.021-3.7,3.644c-1.995,0.968-0.896,0.784-2.506-0.758
	c-1.173-1.124-1.932-3.021-2.806-4.388C267.576,314.212,266.566,312.818,265.469,311.52z M462.048,445.314
	c-2.081,3.087-5.014,5.358-6.271,8.942c-0.857,2.444,1.939,4.25,4.029,3.421c-7.838,8.297-17.786,15.226-26.843,22.075
	c-4.368,3.304-9.019,5.599-13.706,8.342c-2.57,1.505-4.957,3.37-7.462,4.992c-1.612,1.044-5.622,5.1-7.728,5.529
	c2.333-0.63-6.866-8.559-7.861-9.34c-5.128-4.021-9.524-9.353-14.234-13.874c-9.309-8.938-18.044-18.168-26.721-27.707
	c-8.025-8.822-16.092-18.181-24.798-26.317c-3.818-3.568-8.052-6.335-11.537-10.259c-4.325-4.867-8.164-10.093-12.201-15.19
	c-3.559-4.494-7.379-8.676-11.41-12.746c-4.599-4.644-7.864-9.383-11.368-14.863c-1.959-3.064-4.265-6.052-5.731-9.385
	c-1.279-2.907-1.818-5.826-3.62-8.504c-1.453-2.159-5.27-5.848-5.598-8.421c-0.261-2.055,2.564-3.927,4.071-5.894
	c2.031-2.65,4.531-5.06,7.125-7.441c2.289-1.497,4.327-3.479,6.44-5.145c5.018-3.959,10.852-6.862,15.749-10.926
	c2.281-1.893,4.009-4.31,6.19-6.29c2.045-1.856,4.604-2.934,6.722-4.7c3.905-3.254,7.387-7.087,10.376-11.191
	c0.219-0.301,0.419-0.595,0.609-0.886c1.207-0.446,2.403-0.87,3.494-1.327c4.1-1.72,6.723-3.734,10.993-1.98
	c4.165,1.711,7.184,4.014,10.655,6.772c3.31,2.632,7.119,4.003,10.176,7.003c2.667,2.617,5.07,5.481,7.267,8.494
	c2.531,3.473,5.783,6.148,8.403,9.51c5.018,6.437,10.856,12.095,15.941,18.537c2.338,2.962,4.285,6.245,6.978,8.914
	c3.064,3.036,6.032,5.532,8.556,9.076c5.04,7.075,9.977,14.133,15.05,21.141c1.993,2.753,4.535,4.789,6.669,7.374
	c2.669,3.235,3.899,7.372,6.75,10.546c5.399,6.009,10.479,12.044,15.538,18.36c2.873,3.587,5.991,6.803,8.376,10.767
	c1.873,3.114,5.496,6.885,6.581,10.35C469.062,437.419,464.259,442.034,462.048,445.314z"/>
<path d="M293.46,252.838c2.448-3.176,4.638-6.523,6.983-9.772c2.521-3.494,5.657-6.471,8.309-9.863
	c4.923-6.297,7.553-13.693,10.748-20.883c3.196-7.194,5.238-14.052,6.865-21.809c1.856-8.847,1.919-17.211,1.9-26.223
	c-0.018-8.416-2.256-17.092-4.217-25.261c-0.887-3.695-2.014-7.387-3.34-10.948c-0.557-1.496-1.491-2.778-2.113-4.194
	c-0.924-2.1-1.24-4.422-2.072-6.605c-2.851-7.472-7.147-13.9-11.315-20.644c-1.914-3.097-3.281-6.344-5.735-9.094
	c-2.647-2.966-5.766-5.448-8.391-8.449c-2.654-3.034-5.161-6.125-8.212-8.78c-3.427-2.982-7.195-5.539-10.451-8.719
	c-5.429-5.303-11.745-9.911-18.1-14.043c-14.514-9.436-30.071-15.81-47.257-18.582c-9.556-1.542-19.511-0.566-29.153-0.533
	c-8.799,0.029-17.416,1.024-26.148,2.323c-8.973,1.334-17.929,3.989-25.866,8.439c-3.726,2.089-7.581,3.96-10.995,6.551
	c-1.39,1.055-2.667,2.22-3.891,3.44c-4.812,3.407-10.111,7.896-13.506,12.672c-1.86,2.618-3.297,5.435-5.298,7.972
	c-2.071,2.627-4.469,4.949-6.527,7.588c-4.197,5.38-7.718,10.321-10.234,16.68c-1.036,2.62-3.092,4.498-4.389,6.997
	c-1.615,3.111-2.963,6.452-4.107,9.762c-2.37,6.863-3.487,14.141-5.506,21.122c-3.838,13.263-5.532,27.864-5.044,41.663
	c0.521,14.769,3.733,28.683,8.233,42.692c2.305,7.178,5.054,13.157,8.786,19.65c3.152,5.484,5.54,11.599,10.143,16.037
	c4.531,4.368,7.402,10.567,11.621,15.371c4.394,5.004,9.262,10.631,14.868,14.288c11.314,7.38,22.602,15.106,35.456,19.661
	c15.051,5.332,32.509,7.715,48.44,6.28c3.653-0.329,7.094-1.627,10.748-1.856c3.576-0.224,7.171-0.571,10.65-1.475
	c2.796-0.726,5.591-1.569,8.321-2.579c0.752-0.054,1.506-0.124,2.269-0.229c4.03-0.56,7.155-2.335,10.886-3.748
	c7.469-2.828,13.687-8.099,19.99-12.996c2.917-2.267,5.96-3.87,8.993-5.919c3.411-2.304,6.242-5.391,9.334-8.079
	C281.665,265.058,288.133,259.752,293.46,252.838z M263.974,264.272c-3.117,2.878-6.115,4.665-9.648,6.87
	c-3.561,2.223-7.057,5.172-10.433,7.694c-3.196,2.386-6.019,5.606-9.652,7.306c-0.724,0.338-1.439,0.726-2.153,1.13
	c-5.456,1.376-10.915,2.536-16.286,4.276c-6.003,1.944-11.994,1.866-18.061,3.267c-12.671,2.925-27.448,1.163-39.986-1.869
	c-12.11-2.928-23.221-8.374-33.364-15.54c-5.275-3.727-10.411-6.536-14.99-11.207c-4.515-4.605-9.052-9.11-12.42-14.649
	c-2.634-4.332-6.443-7.45-8.93-11.766c-3.181-5.52-7.15-11.057-9.743-16.875c-5.426-12.179-9.054-26.38-10.545-39.6
	c-1.487-13.187-0.557-26.284,1.529-39.34c1.015-6.355,3.203-12.461,4.548-18.752c1.405-6.572,2.685-13.07,5.715-19.148
	c1.307-2.621,3.432-4.59,4.54-7.34c1.202-2.984,1.996-5.833,3.695-8.614c3.545-5.805,8.264-10.735,12.187-16.259
	c1.764-2.485,2.938-5.345,4.721-7.788c2.235-3.063,5.483-5.956,8.223-8.582c3.466-3.323,7.518-5.673,11.52-8.117
	c7.52-3.388,15.303-6.146,23.465-7.711c7.271-1.396,14.73-1.973,22.035-2.927c7.442-0.972,15.642,0.073,23.183-0.039
	c15.995-0.234,32.248,4.514,46.311,12.084c13.123,7.065,24.571,17.51,35.702,27.272c5.518,4.839,10.433,10.856,15.498,16.188
	c2.236,2.353,3.345,5.252,5.011,7.992c1.942,3.194,4.18,6.19,5.943,9.495c1.721,3.226,3.608,6.625,4.69,10.129
	c0.567,1.837,0.666,3.767,1.399,5.554c0.55,1.342,1.508,2.39,2.116,3.683c3.107,6.613,4.025,14.591,5.396,21.694
	c3.029,15.688,1.413,31.217-3.032,46.495c-1.835,6.304-5.108,12.526-8.101,18.375c-3.644,7.119-9.046,12.172-13.725,18.528
	c-5.232,7.109-10.091,13.905-16.722,19.829C270.45,258.831,267.087,261.397,263.974,264.272z"/>
<path d="M262.169,108.268c-1.071-2.764-1.87-5.753-3.374-8.33c-1.862-3.188-4.838-5.364-7.1-8.196
	c-1.487-1.862-3.837,0.252-3.555,2.069c0.733,4.71,4.093,8.338,5.437,12.952c1.668,5.727,4.204,11.172,5.652,16.969
	c2.525,10.118,2.836,23.876-7.477,30.163c-9.428,5.748-16.117-11.66-21.66-16.003c-3.85-3.015-3.93-8.563-7.211-12.343
	c-2.78-3.202-6.557-5.47-10.453-7.036c-18.304-7.354-36.591,2.972-55.315,0.706c-11.096-1.343-22.776-11.281-13.602-22.469
	c2.86-3.489,6.536-6.171,9.23-9.822c2.017-2.734,3.509-5.75,6.245-7.875c2.2-1.708,4.773-3.02,7.211-4.352
	c6.077-3.32,11.823-5.641,18.705-6.715c6.943-1.083,14.034-3.057,21.104-2.764c6.152,0.255,14.851,2.795,19.121,7.382
	c2.876,3.089,3.859,6.998,8.168,8.421c2.37,0.783,3.21-2.763,1.009-3.661c-3.102-1.263-4.124-6.126-6.154-8.505
	c-1.215-1.424-2.696-2.5-4.291-3.489c-5.297-3.288-11.604-5.743-17.853-6.025c-6.349-0.288-12.643,1.249-18.867,2.264
	c-7.667,1.25-14.091,2.558-20.988,6.253c-4.558,2.442-9.652,4.8-13.259,8.6c-2.511,2.646-4,6.067-6.399,8.806
	c-2.248,2.566-4.944,4.702-7.156,7.308c-6.428,7.571-6.746,18.23,0.858,25.058c18.585,16.688,44.126-0.436,65.22,4.874
	c6.088,1.533,12.373,4.553,14.565,10.851c0.864,2.482,1.053,5.112,2.721,7.251c2.129,2.729,4.693,4.49,6.593,7.564
	c4.906,7.937,14.062,17.608,24.444,13.401c11.799-4.782,15.93-19.559,14.702-30.938
	C267.583,122.707,265.029,115.644,262.169,108.268z"/>
<path d="M117.856,205.259c-0.447-1.787-2.377-3.041-4.188-2.884c0.075-0.109,0.144-0.219,0.22-0.328
	c1.601-2.284-2.103-4.372-3.712-2.17c-2.963,4.053-5.143,7.935-5.956,12.282c-1.277,3.233-1.488,6.872-0.318,10.893
	c0.581,1.995,2.903,3.59,5.004,2.84c4.035-1.438,5.813-4.729,7.087-8.386c0.92-1.625,1.572-3.461,1.931-5.332
	c0.174-0.746,0.347-1.526,0.597-2.371c0.396-1.337,0.159-2.46-0.424-3.316C118.033,206.068,117.955,205.656,117.856,205.259z"/>
<path d="M125.886,229.518c-0.669,0.735-1.227,1.582-1.586,2.469c-1.245,1.153-2.372,2.429-3.162,3.882
	c-2.029,3.729,0.439,7.754,4.05,9.006c8.425,2.921,11.434-8.907,7.596-14.469C131.261,228.202,127.916,227.286,125.886,229.518z"/>
<path d="M152.153,245.678c-1.185-0.269-2.435-0.146-3.543,0.321c-1.062-0.686-2.714-0.663-3.468,0.619
	c-1.927,3.282-5.344,6.237-3.123,10.397c2.211,4.14,8.23,6.611,12.001,3.113c2.844-2.637,3.237-7.256,1.974-10.751
	C155.307,247.473,154.188,246.141,152.153,245.678z"/>
<path d="M314.322,355.159c-1.671,2.814-3.328,5.773-4.529,8.823c-0.946,2.404-1.282,5.167-1.878,7.689
	c-0.274,1.157-0.025,2.446,0.869,3.287c0.41,0.385,0.81,0.704,1.297,0.985c0.829,0.478,1.686,0.248,2.383-0.308
	c2.47-1.972,2.967-4.519,3.491-7.587c0.616-3.607,2.54-7.176,3.884-10.563C321.127,354.24,316.018,352.301,314.322,355.159z"/>
<path d="M328.025,363.149c-2.348-2.164-5.464,1.069-3.461,3.461c-0.004-0.005-2.883,4.223-3.325,4.909
	c-1.42,2.209-2.475,4.647-2.946,7.244c-0.546,3.02-0.23,10.122,4.695,7.942c2.38-1.054,2.289-3.714,2.623-5.924
	c0.4-2.658,1.305-4.834,2.456-7.212C329.679,370.242,331.169,366.046,328.025,363.149z"/>
<path d="M333.832,377.253c-0.448,2.218-1.615,3.272-3.064,4.919c-1.311,1.49-1.637,3.277-2.689,4.921
	c-2.091,3.265-3.761,6.407-1.027,9.813c0.927,1.156,2.847,0.676,3.52-0.454c1.013-1.701,1.533-3.537,2.63-5.209
	c1.161-1.773,1.529-3.509,2.358-5.374c1.406-3.162,3.296-5.517,1.741-9.068C336.651,375.315,334.139,375.731,333.832,377.253z"/>
<path d="M342.486,388.091c-0.323-0.013-0.647-0.026-0.971-0.039c-2.585-0.102-3.352,3.452-1.488,4.717
	c0.104,1.615-0.027,3.243-0.335,4.826c-0.362,1.853-1.469,4.084-1.474,5.92c-0.004,1.17,0.978,2.099,2.126,2.126
	c3.157,0.075,5.018-4.206,5.384-6.81c0.443-3.166,0.392-6.465-0.926-9.414C344.418,388.56,343.36,388.125,342.486,388.091z"/>
<path d="M387.384,431.934c1.596-3.394-3.358-6.394-5.094-2.977c-1.958,3.851-7.893,13.078-3.527,16.93
	c0.736,0.65,2.074,0.863,2.781,0c1.522-1.855,1.862-4.423,2.695-6.636C385.18,436.755,386.25,434.348,387.384,431.934z"/>
<path d="M390.691,438.216c-2.431-0.064-3.366,2.853-2.192,4.475c-0.309,0.342-0.582,0.854-0.832,1.226
	c-0.701,1.043-1.323,2.102-1.857,3.246c-0.643,1.376-1.289,2.761-1.482,4.275c-0.152,1.198-0.66,2.392-0.63,3.594
	c0.033,1.282,1.033,2.264,2.31,2.31c2.551,0.091,3.555-2.234,4.503-4.229c0.977-2.056,1.819-4.105,2.969-6.074
	C395.467,443.639,395.996,438.357,390.691,438.216z"/>
<g>
</g>
<g>
</g>
<g>
</g>
<g>
</g>
<g>
</g>
<g>
</g>
<g>
</g>
<g>
</g>
<g>
</g>
<g>
</g>
<g>
</g>
<g>
</g>
<g>
</g>
<g>
</g>
<g>
</g>
</svg>
