<?xml version="1.0" encoding="utf-8"?>
<!-- Generator: Adobe Illustrator 22.0.0, SVG Export Plug-In . SVG Version: 6.00 Build 0)  -->
<svg version="1.1" id="Layer_1" xmlns="http://www.w3.org/2000/svg" xmlns:xlink="http://www.w3.org/1999/xlink" x="0px" y="0px"
	 viewBox="0 0 120 120" style="enable-background:new 0 0 120 120;" xml:space="preserve">
<style type="text/css">
	.st0{fill:#3C3C3B;}
</style>
<path class="st0" d="M44.3,92c0.1,0.1,0.2,0.2,0.3,0.2c-0.1,0.3-0.1,0.7,0.3,1c5.2,5.2,10.3,10.4,15.5,15.6c0,0.3,0.1,0.7,0.1,1
	c0.1,1.1,1.9,1.5,2.1,0.3c0.1-0.5,0.2-1,0.3-1.6c0.8,0,1.5-1,0.8-1.8c-0.1-0.1-0.2-0.3-0.3-0.4c1.7-7.8,3.7-16,2.4-23.9
	c-0.1-0.7-0.7-0.9-1.3-0.7c0,0,0-0.1,0-0.1c0-0.4,0.1-0.9,0.1-1.3c0.1-1.1-1.2-1.2-1.7-0.5c-0.4,0-0.8,0.1-1,0.5
	c-0.6-0.3-1.4,0-1.5,0.9c-0.3,3.5-0.6,7-0.8,10.5c-1.9-4.8-3.8-10.3-4.6-15.7c0.4-2.1,1-4.2,2.1-6.1c2.5-4.7,6.8-8,10.1-12.1
	c2.8-3.4,5.2-7.2,6.9-11.3c3.3-7.9,3.9-17-0.2-24.7C70.2,15,63.6,10,55.8,9.6c-1.2-0.1-1.2,1.6-0.3,2c1.5,0.6,3,1.4,4.3,2.3
	c-0.3,0.4-0.3,1,0.3,1.3c1.4,0.6,2.7,1.4,3.9,2.3c0.1,0.1,0.2,0.2,0.3,0.3c0.6,0.8,1.1,1.6,1.6,2.5c2.3,3.9,4.4,8.2,4.4,12.9
	c-0.1,6.5-3.6,12-7.5,17.1c0,0,0,0,0,0c-5.5,3.3-8.8,8.9-10.1,15c-1.7,3.9-2.7,8.1-2.6,12.6c0,3.2,0.6,6.3,1.5,9.3
	c0.8,3.6,2.5,7,5.4,10.1c0.2,0.2,0.4,0.3,0.6,0.3c0.1,0.4,0.3,0.9,0.4,1.4c-1-1.3-2.1-2.6-3.3-3.9c-2-2.3-4-4.5-6.2-6.7
	c-0.7-0.7-1.5-0.2-1.7,0.5c-0.1,0-0.1,0-0.2,0c-0.8-0.1-1.6,0.7-1.3,1.4C44.5,90,43.5,91.2,44.3,92z"/>
<path class="st0" d="M55.5,104.8c0.3,0.3,0.5,0.5,0.8,0.8c0.5,0.5,1,1,1.5,1.4c-5.9-2.9-10.1-9-11.4-15.5c0-0.2-0.1-0.5-0.1-0.7
	C47.5,96.4,50.8,101.5,55.5,104.8z"/>
<path class="st0" d="M47.5,77.4c1.6-4.9,4.3-9.4,7.5-13.3c1.8-2.2,3.7-4.2,5.5-6.3C56,64.3,50.4,70.2,47.5,77.4z"/>
<path class="st0" d="M65.9,54.6c-1.1,2.4-2.6,4.7-4.1,6.9c1.6-2.5,3.1-5.3,4.3-8.1C66.1,53.8,66,54.2,65.9,54.6z"/>
</svg>
