<?xml version="1.0" encoding="utf-8"?>
<!-- Generator: Adobe Illustrator 22.0.0, SVG Export Plug-In . SVG Version: 6.00 Build 0)  -->
<svg version="1.1" id="Layer_1" xmlns="http://www.w3.org/2000/svg" xmlns:xlink="http://www.w3.org/1999/xlink" x="0px" y="0px"
	 viewBox="0 0 120 120" style="enable-background:new 0 0 120 120;" xml:space="preserve">
<style type="text/css">
	.st0{fill:#3C3C3B;}
</style>
<path class="st0" d="M87.5,76.9c5.6-2.3,11.1-4.9,16.5-7.5c4.6-1.6,9.2-3.1,13.9-4.8c1.3-0.5,0.8-2.3-0.6-2.1
	c-0.4,0.1-0.8,0.2-1.2,0.2c-0.1,0-0.1,0-0.2,0c-0.1-0.1-0.3-0.1-0.4-0.2c-0.2-0.1-0.4-0.2-0.6-0.3c0.1-0.1,0.1-0.2,0.1-0.3
	c0.1,0,0.1-0.1,0.2-0.1c0,0,0.1,0,0.1,0.1c1.2,0.6,2.2-1.1,1-1.8c-0.1,0-0.1-0.1-0.2-0.1c-0.2-0.3-0.6-0.5-0.9-0.5
	c-1.6-0.8-3.2-1.7-4.8-2.5c-2.9-1.7-5.9-3.3-8.9-4.8c-5.5-3-11.2-5.7-17.1-7.8c-1.1-0.4-1.8,1.4-0.8,1.9c0.5,0.2,0.9,0.5,1.4,0.7
	c0,0,0,0,0,0c-0.3-0.1-0.6-0.1-0.9-0.2c-1.1-0.2-2,1.4-0.8,1.9c0.9,0.4,1.8,0.8,2.7,1.2c0.1,0.2,0.2,0.3,0.4,0.4
	c0.8,0.4,1.6,0.8,2.4,1.2c-0.1,0-0.2,0.1-0.2,0.1c-0.3,0.2-0.4,0.5-0.3,0.8c0,0.1,0.1,0.2,0.1,0.4c0.2,0.8,1.4,0.5,1.3-0.4
	c0.2,1,5.1,2.3,6.1,2.7c1.1,0.5,2.3,1,3.4,1.5c2.6,1.3,5.1,2.5,7.7,3.8c-2.3-0.1-4.6-0.2-7-0.3C67.4,58,34.8,58.9,2.4,62.5
	c-1,0.1-1.1,1.7,0,1.6C3.6,64,4.8,63.9,6,63.8c-3,0.5-5.6,1.8-4.2,4.7c0.1,0.3,0.5,0.4,0.8,0.4c34-0.4,67.9-2,101.8-4.6
	c-6.7,3-13.4,6.1-20.1,9.1c-0.9,0.4-0.6,1.7,0.2,2c0.2,0.6,0.7,1,1.4,0.8c0.1,0,0.2-0.1,0.3-0.1C86.3,76.7,86.8,77.2,87.5,76.9z
	 M25.8,62.5c-4.5,0.2-9,0.5-13.5,0.8c-0.1,0-0.3,0-0.5,0C16.4,63,21.1,62.7,25.8,62.5z M40,63.6c4.1-0.1,8.3-0.3,12.4-0.3
	c4.5-0.1,9-0.1,13.5-0.1c-12.7,0.5-25.5,1.1-38.2,1.6C31.8,64.3,35.9,64,40,63.6z M6,67.4c-0.4,0-0.8-0.1-1.1-0.2
	c-0.3,0-0.5,0-0.8,0c0.4-0.5,0.9-1,1.3-1.6c0.7-0.4,2.2-0.2,3-0.3c0.4,0,0.9-0.1,1.3-0.1c-1.2,0.2-2.4,0.3-3.6,0.5
	C5.2,65.9,5.3,67.1,6,67.4z M46.5,66.1c9.5-0.4,19-0.9,28.4-1.5c1.4-0.1,2.8-0.1,4.2-0.2C68.3,65.1,57.4,65.6,46.5,66.1z"/>
</svg>
