<svg xmlns="http://www.w3.org/2000/svg" height="511pt" version="1.1" viewBox="-68 0 511 511.99685" width="511pt">
<g id="surface1">
<path d="M 317.585938 241.429688 L 316.960938 241.144531 L 316.273438 241.160156 C 313.117188 241.226562 309.96875 241.40625 306.832031 241.648438 L 307.183594 237.707031 C 301.136719 236.105469 294.726562 235.292969 288.132812 235.292969 C 283.40625 235.292969 278.632812 235.71875 273.941406 236.554688 C 257.851562 239.433594 241.929688 246.875 226.617188 258.683594 C 214.398438 268.101562 203.675781 279.453125 194.578125 289.347656 L 192.636719 291.46875 L 194.671875 293.503906 L 195.738281 294.539062 L 197.050781 294.460938 C 197.292969 294.449219 197.53125 294.421875 197.757812 294.394531 L 198.789062 294.261719 L 199.515625 293.523438 C 201.816406 291.183594 204.183594 288.925781 206.601562 286.738281 L 209.148438 291.609375 C 211.535156 290.746094 213.875 289.804688 216.054688 288.914062 L 288.605469 259.195312 L 287.527344 255.367188 C 292.15625 254.625 296.800781 254.050781 301.441406 253.667969 L 302.109375 253.667969 L 307.8125 251.324219 C 311.511719 249.8125 315.089844 248.597656 318.445312 247.707031 L 326.101562 245.660156 L 318.984375 242.109375 C 318.527344 241.875 318.066406 241.648438 317.585938 241.429688 Z M 209.304688 284.34375 C 214.121094 280.167969 219.15625 276.28125 224.382812 272.699219 L 225.46875 274.480469 C 219.917969 277.5 214.523438 280.796875 209.304688 284.34375 Z M 209.304688 284.34375 " style=" stroke:none;fill-rule:nonzero;fill:rgb(94.117647%,94.901961%,98.039216%);fill-opacity:1;" />
<path d="M 78.503906 241.300781 C 71.992188 241.300781 65.53125 241.921875 59.300781 243.144531 L 59.394531 247.09375 C 58.339844 246.9375 57.289062 246.769531 56.238281 246.625 L 55.113281 252.511719 C 57.550781 253.109375 60.046875 253.804688 62.535156 254.578125 L 164.746094 286.480469 L 166.242188 282.765625 C 168.667969 283.976562 171.078125 285.210938 173.464844 286.476562 L 176.628906 281.398438 C 161.613281 270.511719 143.394531 258.265625 122.109375 249.953125 C 107.394531 244.210938 92.722656 241.300781 78.503906 241.300781 Z M 78.503906 241.300781 " style=" stroke:none;fill-rule:nonzero;fill:rgb(94.117647%,94.901961%,98.039216%);fill-opacity:1;" />
<path d="M 185.996094 248.890625 L 182.492188 249.316406 L 179.820312 249.316406 C 179.710938 249.316406 179.609375 249.324219 179.589844 249.328125 L 178.839844 249.328125 C 161.878906 249.328125 145.355469 242.09375 133.503906 229.472656 L 128.554688 232.691406 C 131.886719 240.613281 135.597656 248.496094 139.578125 256.117188 L 140.015625 256.949219 L 140.847656 257.386719 C 148.597656 261.441406 156.496094 266.199219 164.992188 271.925781 L 167.332031 273.5 L 183.105469 252.960938 L 207.003906 274.734375 L 209.027344 272.75 C 213.183594 268.683594 216.980469 265.210938 220.636719 262.144531 L 221.375 261.527344 L 221.632812 260.511719 L 234.074219 226.5625 L 228.835938 223.753906 C 218.667969 237.644531 203.054688 246.808594 185.996094 248.890625 Z M 185.996094 248.890625 " style=" stroke:none;fill-rule:nonzero;fill:rgb(84.705882%,87.058824%,92.54902%);fill-opacity:1;" />
<path d="M 242.089844 215.761719 L 239.4375 215.046875 L 223.046875 259.738281 L 230.894531 254.210938 C 243.273438 245.492188 256.070312 239.539062 268.925781 236.515625 L 274.394531 235.230469 L 270.285156 231.402344 C 262.335938 223.996094 252.585938 218.589844 242.089844 215.761719 Z M 242.089844 215.761719 " style=" stroke:none;fill-rule:nonzero;fill:rgb(15.686275%,56.078431%,78.823529%);fill-opacity:1;" />
<path d="M 121.402344 217.265625 L 120.417969 214.507812 L 117.636719 215.429688 C 104.875 219.652344 92.65625 226.445312 82.300781 235.074219 L 76.421875 239.96875 L 84.0625 240.371094 C 96.667969 241.039062 109.597656 243.929688 122.5 248.960938 C 124.851562 249.878906 127.328125 250.925781 130.539062 252.359375 L 138.0625 255.714844 L 134.457031 248.304688 C 129.578125 238.277344 125.183594 227.835938 121.402344 217.265625 Z M 121.402344 217.265625 " style=" stroke:none;fill-rule:nonzero;fill:rgb(15.686275%,56.078431%,78.823529%);fill-opacity:1;" />
<path d="M 337.203125 414.195312 C 334.035156 409.753906 334.390625 403.328125 337.996094 399.871094 L 340.234375 397.722656 L 338.011719 395.558594 C 336.707031 394.289062 335.632812 392.867188 334.820312 391.332031 C 331.808594 385.640625 332.648438 377.890625 336.820312 372.902344 L 338.449219 370.953125 L 336.796875 369.023438 C 334.871094 366.78125 333.597656 364.089844 333.105469 361.234375 C 332.347656 356.863281 333.460938 352.304688 336.15625 348.734375 L 337.726562 346.648438 L 335.878906 344.804688 C 335.292969 344.214844 334.792969 343.59375 334.398438 342.941406 C 331.285156 337.847656 333.445312 331.164062 337.214844 327.167969 C 337.519531 326.835938 337.84375 326.515625 338.183594 326.199219 L 338.742188 325.6875 C 338.921875 325.527344 339.101562 325.367188 339.289062 325.210938 L 339.367188 325.144531 C 339.472656 325.050781 339.578125 324.964844 339.691406 324.878906 L 339.773438 324.8125 C 340.019531 324.609375 340.265625 324.417969 340.523438 324.222656 L 340.976562 323.878906 C 341.257812 323.675781 341.535156 323.480469 341.871094 323.253906 L 342.28125 322.96875 C 342.710938 322.6875 343.148438 322.414062 343.542969 322.179688 L 343.742188 322.078125 L 343.835938 322.023438 C 344.214844 321.796875 344.59375 321.589844 344.910156 321.417969 L 345.667969 321.035156 C 345.765625 320.984375 345.867188 320.929688 345.96875 320.882812 L 347.804688 320.082031 L 347.0625 277.132812 L 342.472656 280.253906 C 341.703125 280.777344 340.753906 281.054688 339.703125 281.054688 C 338.089844 281.046875 336.679688 280.351562 335.929688 279.195312 C 334.824219 277.488281 334.96875 275.316406 335.121094 273.015625 L 335.128906 272.90625 C 335.222656 271.414062 335.320312 269.871094 335.082031 268.351562 C 334.644531 265.605469 332.890625 263.109375 330.277344 261.507812 C 328.566406 260.457031 326.671875 259.902344 324.789062 259.902344 C 323.824219 259.902344 322.882812 260.050781 321.996094 260.339844 C 320.269531 260.898438 318.679688 261.917969 317.277344 262.816406 C 315.378906 264.023438 313.417969 265.273438 311.433594 265.273438 C 311.175781 265.273438 310.914062 265.253906 310.65625 265.210938 C 308.628906 264.890625 306.828125 263.175781 305.957031 260.730469 C 305.648438 259.859375 305.4375 258.855469 305.3125 257.664062 L 304.898438 253.683594 L 216.488281 289.886719 C 215.644531 290.238281 214.789062 290.578125 213.933594 290.921875 L 211.746094 291.796875 L 211.980469 294.167969 L 212.386719 500.433594 L 216.328125 499.121094 C 225.378906 496.109375 234.441406 493.070312 243.292969 490.097656 C 265.433594 482.664062 290.527344 474.234375 315.140625 466.578125 L 318.566406 465.515625 L 316.910156 462.328125 C 315.621094 459.847656 315.476562 456.882812 316.535156 454.394531 C 317.796875 451.402344 320.6875 449.207031 323.917969 448.796875 C 324.382812 448.734375 324.898438 448.707031 325.535156 448.707031 C 325.953125 448.707031 326.367188 448.71875 326.773438 448.730469 L 327.1875 448.738281 C 327.574219 448.75 327.949219 448.757812 328.316406 448.757812 C 328.910156 448.757812 329.402344 448.738281 329.867188 448.691406 C 332.621094 448.417969 334.753906 447.101562 335.5625 445.171875 C 336.542969 442.855469 335.542969 440.628906 334.578125 438.476562 C 334.300781 437.859375 334.011719 437.21875 333.792969 436.621094 C 332.414062 432.78125 333.617188 428.257812 336.71875 425.613281 C 337.835938 424.660156 339.21875 423.960938 340.722656 423.585938 L 347.839844 421.824219 L 341.523438 418.09375 C 339.753906 417.050781 338.300781 415.734375 337.203125 414.195312 Z M 313.355469 321.121094 C 312.082031 323.660156 309.136719 324.882812 305.972656 326.011719 L 242.832031 348.4375 C 242.582031 345.878906 242.226562 343.25 241.859375 340.496094 L 241.820312 340.207031 C 240.929688 333.664062 240.011719 326.894531 240.507812 320.808594 C 240.875 316.238281 248.578125 313.824219 254.800781 311.871094 C 256.59375 311.316406 258.285156 310.792969 259.601562 310.261719 L 311.628906 289.226562 L 313.921875 314.644531 C 314.117188 316.765625 314.339844 319.175781 313.355469 321.121094 Z M 313.355469 321.121094 " style=" stroke:none;fill-rule:nonzero;fill:rgb(68.627451%,47.45098%,47.45098%);fill-opacity:1;" />
<path d="M 211.308594 498.097656 L 211.234375 460.035156 L 206.085938 465.386719 C 201.988281 469.644531 195.863281 472.113281 189.300781 472.15625 L 189.070312 472.15625 C 184.410156 472.15625 179.414062 470.996094 174.222656 468.703125 L 169.941406 466.8125 L 170.480469 503.316406 C 170.480469 503.378906 170.472656 503.441406 170.464844 503.5 L 169.964844 506.359375 L 172.804688 506.953125 C 174.691406 507.347656 176.375 507.613281 177.945312 507.761719 C 179.019531 507.867188 180.140625 507.921875 181.285156 507.921875 C 189.625 507.921875 198.21875 505.101562 204.539062 503.027344 L 206.605469 502.34375 C 207.496094 502.046875 208.386719 501.75 209.28125 501.457031 L 211.53125 500.722656 L 211.339844 498.363281 C 211.332031 498.277344 211.320312 498.191406 211.308594 498.097656 Z M 211.308594 498.097656 " style=" stroke:none;fill-rule:nonzero;fill:rgb(68.627451%,47.45098%,47.45098%);fill-opacity:1;" />
<path d="M 187.851562 456.722656 C 188.839844 456.722656 189.832031 456.675781 190.804688 456.582031 C 197.980469 455.921875 204.878906 452.859375 210.234375 447.960938 L 211.210938 447.066406 L 210.976562 325.898438 L 206.210938 329.398438 C 200.925781 333.285156 194.421875 335.625 187.890625 335.992188 C 187.28125 336.027344 186.660156 336.046875 186.050781 336.046875 C 181.367188 336.046875 176.582031 335.03125 172.21875 333.109375 L 167.941406 331.230469 L 169.714844 451.453125 L 171.203125 452.304688 C 176.269531 455.191406 182.027344 456.722656 187.851562 456.722656 Z M 187.851562 456.722656 " style=" stroke:none;fill-rule:nonzero;fill:rgb(68.627451%,47.45098%,47.45098%);fill-opacity:1;" />
<path d="M 199.082031 295.335938 C 197.851562 295.507812 196.574219 295.597656 195.285156 295.597656 C 193.65625 295.597656 192 295.464844 190.203125 295.191406 C 185.269531 294.453125 180.4375 292.785156 175.765625 291.171875 L 175.578125 291.109375 C 174.132812 290.597656 172.75 290.140625 171.324219 289.667969 L 167.320312 288.34375 L 167.722656 316.375 L 169.175781 317.230469 C 174.8125 320.554688 181.210938 322.308594 187.6875 322.308594 C 188.210938 322.308594 188.738281 322.296875 189.257812 322.273438 C 196.601562 321.960938 203.886719 319.316406 209.769531 314.832031 L 210.953125 313.929688 L 210.910156 292.210938 L 207.003906 293.460938 C 204.058594 294.402344 201.546875 294.996094 199.082031 295.335938 Z M 199.082031 295.335938 " style=" stroke:none;fill-rule:nonzero;fill:rgb(68.627451%,47.45098%,47.45098%);fill-opacity:1;" />
<path d="M 168.734375 466.328125 L 168.863281 466.164062 L 166.238281 288.0625 L 64.769531 256.398438 L 65.4375 261.097656 C 65.746094 263.28125 65.128906 265.550781 63.777344 267.175781 C 62.367188 268.878906 60.058594 269.941406 57.757812 269.941406 C 57.175781 269.941406 56.601562 269.875 56.058594 269.742188 C 54.449219 269.351562 53.019531 268.476562 51.496094 267.542969 C 50.847656 267.148438 50.1875 266.757812 49.511719 266.386719 C 48.246094 265.703125 46.308594 264.890625 44.292969 264.890625 C 43.195312 264.890625 42.191406 265.128906 41.304688 265.609375 C 37.507812 267.660156 37.589844 272.753906 37.707031 274.273438 C 37.789062 275.300781 37.945312 276.285156 38.09375 277.222656 C 38.390625 279.164062 38.671875 280.996094 38.378906 282.804688 C 37.855469 285.988281 35.40625 288.6875 32.269531 289.519531 C 31.613281 289.699219 30.917969 289.789062 30.207031 289.789062 C 29.53125 289.789062 28.804688 289.6875 28.042969 289.488281 L 24.289062 288.5 L 24.277344 292.378906 C 24.269531 295.574219 24.269531 298.765625 24.269531 301.945312 L 24.257812 318.925781 L 26.265625 319.628906 C 26.460938 319.699219 26.652344 319.773438 26.847656 319.851562 C 26.847656 319.851562 27.628906 320.152344 27.8125 320.21875 C 28.398438 320.46875 28.988281 320.726562 29.589844 321.027344 C 29.679688 321.074219 29.769531 321.121094 29.859375 321.167969 C 30.359375 321.425781 30.859375 321.695312 31.328125 321.953125 L 31.523438 322.070312 C 31.660156 322.15625 31.800781 322.242188 31.945312 322.324219 C 32.300781 322.539062 32.667969 322.765625 33.011719 322.996094 L 33.101562 323.058594 C 33.269531 323.167969 33.4375 323.277344 33.601562 323.394531 L 33.703125 323.464844 C 34.042969 323.691406 34.375 323.9375 34.6875 324.175781 L 34.894531 324.332031 C 35.015625 324.425781 35.140625 324.515625 35.289062 324.636719 C 35.625 324.902344 35.960938 325.183594 36.28125 325.464844 L 36.753906 325.875 C 37.183594 326.269531 37.675781 326.730469 38.101562 327.183594 C 40.742188 329.992188 42.378906 333.945312 42.378906 337.5 C 42.378906 339.507812 41.878906 341.339844 40.894531 342.949219 C 40.503906 343.597656 40.003906 344.21875 39.417969 344.804688 L 37.570312 346.652344 L 39.140625 348.734375 C 41.835938 352.308594 42.949219 356.867188 42.191406 361.242188 C 41.699219 364.09375 40.425781 366.785156 38.5 369.027344 L 36.847656 370.953125 L 38.476562 372.90625 C 42.648438 377.890625 43.488281 385.644531 40.476562 391.335938 C 39.667969 392.863281 38.59375 394.289062 37.289062 395.566406 L 35.082031 397.730469 L 37.308594 399.871094 C 40.910156 403.332031 41.261719 409.757812 38.097656 414.195312 C 35.707031 417.550781 31.640625 419.78125 26.941406 420.328125 L 24.28125 420.636719 L 24.34375 437.519531 L 28.40625 435.960938 C 30.21875 435.265625 31.757812 434.925781 33.117188 434.925781 C 34.492188 434.925781 35.652344 435.285156 36.679688 436.023438 C 40.046875 438.445312 39.492188 443.882812 38.867188 446.90625 C 38.769531 447.367188 38.664062 447.835938 38.558594 448.296875 L 38.53125 448.425781 C 37.976562 450.976562 37.402344 453.609375 37.757812 456.308594 C 38.191406 459.628906 40.539062 463.203125 44.207031 463.605469 C 44.421875 463.625 44.636719 463.636719 44.859375 463.636719 C 46.023438 463.636719 47.125 463.351562 48.324219 463.011719 C 49.300781 462.738281 50.3125 462.457031 51.265625 462.457031 C 51.4375 462.457031 51.613281 462.46875 51.78125 462.488281 C 54.425781 462.808594 56.097656 465.808594 56.132812 468.402344 C 56.15625 470.640625 55.292969 472.851562 54.640625 474.320312 L 53.175781 477.617188 L 56.683594 478.457031 C 69.261719 481.476562 81.851562 484.507812 94.441406 487.535156 C 106.613281 490.457031 118.792969 493.390625 130.976562 496.320312 L 153.578125 501.753906 C 156.226562 502.394531 159.019531 503.210938 161.910156 504.070312 C 161.910156 504.070312 164.851562 504.929688 165.566406 505.132812 L 169.453125 506.246094 L 168.867188 466.496094 Z M 87.53125 317.644531 L 85.808594 359.148438 L 64.65625 353.953125 C 61.882812 353.277344 59.984375 352.539062 59.101562 350.933594 C 58.410156 349.660156 58.53125 347.941406 58.628906 346.558594 C 59.246094 341.601562 59.511719 336.507812 59.765625 331.582031 L 59.785156 331.25 C 59.910156 328.761719 60.054688 326.101562 60.230469 323.515625 L 60.300781 322.40625 C 60.554688 318.382812 60.84375 313.824219 64.226562 311.28125 C 66.699219 309.414062 70.078125 309.175781 72.746094 309.175781 C 73.847656 309.175781 74.925781 309.222656 75.960938 309.265625 L 76.644531 309.292969 C 80.726562 309.449219 84.25 309.734375 86.019531 311.65625 C 87.152344 312.890625 87.644531 314.847656 87.53125 317.644531 Z M 87.53125 317.644531 " style=" stroke:none;fill-rule:nonzero;fill:rgb(68.627451%,47.45098%,47.45098%);fill-opacity:1;" />
<path d="M 341.804688 371.746094 C 344.164062 373.039062 346.976562 373.726562 349.9375 373.726562 C 352.132812 373.726562 354.367188 373.359375 356.574219 372.636719 C 363.066406 370.507812 368.105469 365.574219 369.71875 359.765625 C 371.175781 354.554688 369.46875 348.5 365.570312 345.042969 L 363.679688 343.367188 L 361.707031 344.941406 C 358.261719 347.691406 353.703125 349.234375 348.867188 349.285156 C 348.789062 349.285156 348.707031 349.289062 348.585938 349.292969 C 348.476562 349.285156 348.375 349.277344 348.296875 349.277344 C 348.292969 349.277344 348.292969 349.277344 348.289062 349.277344 C 347.734375 349.269531 347.175781 349.25 346.621094 349.207031 C 346.621094 349.207031 346.316406 349.175781 346.230469 349.167969 C 345.644531 349.105469 345.058594 349.035156 344.511719 348.945312 C 343.21875 348.710938 341.984375 348.371094 340.839844 347.933594 L 338.832031 347.167969 L 337.460938 348.816406 C 334.652344 352.195312 333.414062 356.769531 334.148438 361.050781 C 334.914062 365.5 337.851562 369.601562 341.804688 371.746094 Z M 341.804688 371.746094 " style=" stroke:none;fill-rule:nonzero;fill:rgb(100%,82.352941%,73.333333%);fill-opacity:1;" />
<path d="M 366.464844 367.945312 L 363.746094 370.039062 C 361.703125 371.617188 359.398438 372.832031 356.910156 373.652344 C 354.59375 374.40625 352.25 374.785156 349.949219 374.785156 C 346.859375 374.785156 343.914062 374.085938 341.429688 372.761719 L 339.308594 371.628906 L 337.742188 373.449219 C 333.667969 378.191406 332.851562 385.339844 335.765625 390.832031 C 337.796875 394.660156 341.660156 397.746094 346.09375 399.078125 C 347.75 399.578125 349.5 399.832031 351.300781 399.832031 C 351.300781 399.832031 351.300781 399.832031 351.304688 399.832031 C 357.679688 399.828125 363.820312 396.75 367.324219 391.789062 C 371.503906 385.894531 371.851562 377.3125 368.175781 370.921875 Z M 366.464844 367.945312 " style=" stroke:none;fill-rule:nonzero;fill:rgb(100%,82.352941%,73.333333%);fill-opacity:1;" />
<path d="M 339.046875 326.847656 C 338.667969 327.203125 338.300781 327.5625 337.964844 327.917969 C 334.496094 331.601562 332.46875 337.75 335.308594 342.382812 C 337.011719 345.160156 340.339844 347.117188 344.683594 347.890625 C 345.917969 348.109375 347.15625 348.222656 348.363281 348.222656 C 348.53125 348.222656 348.695312 348.21875 348.808594 348.21875 C 353.117188 348.1875 357.171875 346.921875 360.355469 344.636719 L 360.425781 344.636719 L 361.257812 343.949219 C 365.871094 340.140625 368.089844 333.738281 366.652344 328.367188 C 365.628906 324.609375 363.722656 322 361 320.621094 C 359.476562 319.851562 357.714844 319.457031 355.757812 319.457031 C 353.539062 319.457031 351.109375 319.953125 348.527344 320.9375 C 345.121094 322.253906 341.667969 324.40625 339.046875 326.847656 Z M 339.046875 326.847656 " style=" stroke:none;fill-rule:nonzero;fill:rgb(100%,82.352941%,73.333333%);fill-opacity:1;" />
<path d="M 363.15625 397.488281 L 360.796875 398.65625 C 357.828125 400.128906 354.550781 400.90625 351.316406 400.90625 C 349.402344 400.90625 347.542969 400.636719 345.777344 400.101562 C 344.914062 399.84375 344.007812 399.480469 342.929688 398.960938 L 340.160156 397.628906 L 338.894531 400.433594 C 338.871094 400.484375 338.839844 400.527344 338.804688 400.5625 C 335.542969 403.597656 335.203125 409.558594 338.0625 413.578125 C 340.625 417.167969 345.445312 419.398438 350.648438 419.398438 L 350.742188 419.398438 C 356.398438 419.371094 361.625 416.792969 364.386719 412.660156 C 367.003906 408.722656 367.101562 403.386719 364.621094 399.679688 Z M 363.15625 397.488281 " style=" stroke:none;fill-rule:nonzero;fill:rgb(100%,82.352941%,73.333333%);fill-opacity:1;" />
<path d="M 291.699219 158.898438 C 288.667969 156.332031 284.675781 154.914062 280.457031 154.914062 C 277.085938 154.914062 273.890625 155.824219 271.214844 157.539062 C 271.1875 157.554688 271.125 157.585938 271.015625 157.613281 L 270.253906 157.789062 L 270.40625 156.984375 C 270.40625 156.984375 270.417969 156.933594 270.472656 156.816406 L 273.175781 151.203125 L 267.101562 152.59375 C 265.15625 153.035156 263.265625 153.269531 261.507812 153.285156 L 261.238281 153.285156 C 245.902344 153.285156 234.015625 140.09375 229.460938 127.828125 C 225.375 116.867188 225.117188 105.140625 225.40625 95.113281 L 225.609375 88.015625 L 220.378906 92.816406 C 211.472656 100.992188 199.449219 105.679688 187.398438 105.679688 C 184.367188 105.679688 181.359375 105.375 178.464844 104.777344 C 165.179688 102.035156 153.183594 92.996094 146.367188 80.59375 L 142.140625 72.902344 L 140.773438 81.570312 C 138.96875 93 136.054688 107.796875 129.460938 120.882812 C 123.523438 132.628906 112.613281 146.492188 99.796875 150.160156 C 98.519531 150.523438 97.25 150.707031 96.035156 150.707031 C 95.867188 150.707031 95.699219 150.707031 95.53125 150.699219 L 92.0625 150.554688 L 92.421875 154.007812 C 95.3125 181.660156 111.203125 206.660156 134.933594 220.878906 C 148.53125 229.03125 164.316406 233.34375 180.582031 233.339844 C 193.367188 233.339844 206.117188 230.585938 217.441406 225.371094 C 243.617188 213.332031 262.871094 188.203125 267.683594 159.789062 C 267.730469 159.527344 267.929688 159.394531 268.101562 159.355469 L 268.875 159.183594 L 268.730469 160.03125 C 267.078125 169.722656 263.765625 179.109375 258.890625 187.933594 L 257.207031 190.980469 L 260.46875 192.195312 C 263.410156 193.292969 266.273438 193.824219 269.222656 193.824219 C 274.085938 193.824219 278.730469 192.320312 282.628906 190.855469 C 289.171875 188.398438 294.191406 184.039062 296.402344 178.886719 C 299.273438 172.195312 297.25 163.601562 291.699219 158.898438 Z M 291.699219 158.898438 " style=" stroke:none;fill-rule:nonzero;fill:rgb(100%,82.352941%,73.333333%);fill-opacity:1;" />
<path d="M 217.882812 226.34375 C 206.445312 231.613281 193.550781 234.398438 180.589844 234.398438 C 164.105469 234.398438 148.132812 230.042969 134.378906 221.796875 C 133.003906 220.980469 131.644531 220.105469 130.21875 219.125 L 126.046875 223.296875 C 137.738281 240.304688 158.472656 251.292969 178.875 251.289062 L 179.574219 251.285156 C 197.828125 251.0625 216.574219 241.886719 228.5 227.339844 L 224.6875 222.832031 C 222.34375 224.175781 220.121094 225.320312 217.882812 226.34375 Z M 217.882812 226.34375 " style=" stroke:none;fill-rule:nonzero;fill:rgb(100%,82.352941%,73.333333%);fill-opacity:1;" />
<path d="M 91.265625 153.234375 L 90.988281 150.265625 L 88.015625 150.527344 C 78.480469 151.363281 70.453125 154.8125 65.417969 160.238281 C 59.394531 166.726562 57.96875 176.574219 62.097656 183.132812 C 65.308594 188.242188 71.726562 191.472656 78.886719 191.566406 L 79.21875 191.566406 C 84.6875 191.566406 90.515625 189.941406 97.539062 186.449219 L 97.558594 186.445312 L 100.433594 185.003906 L 99.207031 182.363281 C 94.875 173.019531 92.203125 163.222656 91.265625 153.234375 Z M 91.265625 153.234375 " style=" stroke:none;fill-rule:nonzero;fill:rgb(100%,82.352941%,73.333333%);fill-opacity:1;" />
<path d="M 36.453125 347.140625 L 34.429688 347.9375 C 33.824219 348.175781 33.203125 348.378906 32.558594 348.554688 C 31.945312 348.714844 31.367188 348.84375 30.804688 348.941406 C 29.417969 349.175781 28.042969 349.296875 26.71875 349.296875 C 25.683594 349.296875 24.671875 349.226562 23.609375 349.082031 C 19.816406 348.585938 16.347656 347.152344 13.582031 344.941406 L 11.605469 343.363281 L 9.714844 345.046875 C 5.824219 348.507812 4.125 354.558594 5.578125 359.761719 C 7.191406 365.574219 12.230469 370.507812 18.726562 372.640625 C 20.933594 373.359375 23.167969 373.726562 25.367188 373.726562 C 28.320312 373.726562 31.128906 373.046875 33.484375 371.761719 C 37.449219 369.597656 40.382812 365.496094 41.144531 361.054688 C 41.878906 356.777344 40.644531 352.203125 37.839844 348.8125 Z M 36.453125 347.140625 " style=" stroke:none;fill-rule:nonzero;fill:rgb(100%,82.352941%,73.333333%);fill-opacity:1;" />
<path d="M 19.5 319.457031 C 12.546875 319.457031 9.761719 324.304688 8.640625 328.390625 C 7.207031 333.742188 9.425781 340.140625 14.042969 343.953125 C 16.679688 346.128906 20.039062 347.539062 23.75 348.03125 C 24.722656 348.160156 25.722656 348.226562 26.714844 348.226562 C 27.433594 348.226562 28.167969 348.191406 28.910156 348.121094 C 29.460938 348.066406 30.019531 347.988281 30.613281 347.890625 C 34.957031 347.117188 38.285156 345.160156 39.984375 342.386719 C 41.363281 340.144531 41.691406 337.402344 40.9375 334.464844 C 40.332031 332.066406 39.050781 329.742188 37.332031 327.929688 C 33.792969 324.171875 28.53125 321.121094 23.601562 319.964844 C 22.164062 319.628906 20.78125 319.457031 19.5 319.457031 Z M 19.5 319.457031 " style=" stroke:none;fill-rule:nonzero;fill:rgb(100%,82.352941%,73.333333%);fill-opacity:1;" />
<path d="M 35.988281 371.628906 L 33.867188 372.761719 C 31.382812 374.085938 28.4375 374.785156 25.347656 374.785156 C 23.042969 374.785156 20.699219 374.40625 18.398438 373.65625 C 15.898438 372.832031 13.59375 371.617188 11.550781 370.039062 L 8.832031 367.945312 L 7.117188 370.921875 C 3.441406 377.3125 3.792969 385.894531 7.96875 391.789062 C 11.476562 396.75 17.617188 399.835938 23.992188 399.835938 C 25.796875 399.835938 27.550781 399.578125 29.203125 399.078125 C 33.636719 397.746094 37.496094 394.660156 39.527344 390.832031 C 42.441406 385.339844 41.628906 378.191406 37.550781 373.449219 Z M 35.988281 371.628906 " style=" stroke:none;fill-rule:nonzero;fill:rgb(100%,82.352941%,73.333333%);fill-opacity:1;" />
<path d="M 36.402344 400.433594 L 35.136719 397.628906 L 32.367188 398.960938 C 31.289062 399.480469 30.382812 399.84375 29.507812 400.105469 C 27.753906 400.636719 25.890625 400.90625 23.976562 400.90625 C 20.746094 400.90625 17.46875 400.128906 14.5 398.65625 L 12.136719 397.488281 L 10.671875 399.679688 C 8.191406 403.386719 8.289062 408.722656 10.910156 412.660156 C 13.667969 416.789062 18.894531 419.371094 24.539062 419.394531 L 24.710938 419.398438 C 29.855469 419.398438 34.652344 417.167969 37.230469 413.574219 C 40.089844 409.558594 39.75 403.597656 36.5 400.570312 C 36.457031 400.527344 36.425781 400.484375 36.402344 400.433594 Z M 36.402344 400.433594 " style=" stroke:none;fill-rule:nonzero;fill:rgb(100%,82.352941%,73.333333%);fill-opacity:1;" />
<path d="M 214.722656 8.832031 C 204.703125 5.695312 194.1875 4.101562 183.46875 4.101562 C 174.25 4.101562 164.957031 5.285156 155.84375 7.621094 C 135.875 12.75 118.367188 22.996094 105.203125 37.261719 C 89.925781 53.820312 80.6875 75.878906 79.191406 99.375 C 78.570312 109.152344 79.152344 138.960938 89.625 147.390625 C 91.492188 148.902344 93.621094 149.664062 95.945312 149.664062 C 97.078125 149.664062 98.242188 149.488281 99.492188 149.132812 C 112.007812 145.554688 122.941406 131.417969 128.503906 120.398438 C 136.769531 104.023438 139.265625 85.582031 141.679688 67.742188 C 141.714844 67.488281 141.925781 67.292969 142.175781 67.285156 C 142.40625 67.285156 142.667969 67.414062 142.726562 67.707031 C 146.308594 85.292969 161.09375 100.109375 178.679688 103.734375 C 181.542969 104.324219 184.503906 104.625 187.492188 104.625 C 202.734375 104.625 217.464844 97.050781 225.949219 84.851562 C 226.0625 84.6875 226.246094 84.628906 226.378906 84.628906 C 226.410156 84.628906 226.484375 84.636719 226.554688 84.660156 C 226.78125 84.734375 226.925781 84.953125 226.910156 85.265625 C 226.214844 98.710938 225.429688 113.945312 230.457031 127.453125 C 232.816406 133.800781 236.832031 139.738281 241.761719 144.175781 C 247.609375 149.4375 254.34375 152.21875 261.238281 152.21875 L 261.476562 152.21875 C 273.117188 152.117188 284.820312 143.308594 289.9375 130.789062 C 294.097656 120.582031 294.550781 107.980469 291.289062 93.335938 C 282.496094 53.820312 252.445312 20.648438 214.722656 8.832031 Z M 214.722656 8.832031 " style=" stroke:none;fill-rule:nonzero;fill:rgb(96.862745%,70.196078%,43.529412%);fill-opacity:1;" />
<path d="M 165.707031 272.394531 L 168.304688 274.1875 C 175.578125 279.199219 182.714844 284.492188 189.347656 289.46875 L 191.519531 291.09375 L 193.359375 289.097656 C 197.121094 285.003906 201.585938 280.195312 206.1875 275.5625 L 208.394531 273.335938 L 182.847656 250.082031 Z M 165.707031 272.394531 " style=" stroke:none;fill-rule:nonzero;fill:rgb(92.941176%,42.745098%,40%);fill-opacity:1;" />
<path d="M 349.59375 422.933594 L 347.742188 422.191406 C 346.328125 421.625 344.8125 421.339844 343.238281 421.339844 C 340.320312 421.339844 337.554688 422.328125 335.441406 424.125 C 331.730469 427.292969 330.292969 432.703125 331.941406 437.273438 C 332.160156 437.882812 332.425781 438.480469 332.683594 439.058594 L 332.789062 439.292969 C 333.765625 441.464844 334.355469 442.996094 333.761719 444.40625 C 333.226562 445.652344 331.660156 446.550781 329.679688 446.738281 C 329.273438 446.777344 328.847656 446.792969 328.335938 446.792969 C 327.871094 446.792969 327.417969 446.78125 326.9375 446.765625 L 326.710938 446.761719 C 326.332031 446.753906 325.957031 446.746094 325.59375 446.746094 C 324.835938 446.746094 324.222656 446.777344 323.65625 446.851562 C 319.757812 447.347656 316.25 450.007812 314.722656 453.632812 C 313.308594 456.992188 313.671875 461.011719 315.675781 464.113281 L 316.90625 466.019531 L 319.078125 465.351562 C 323.390625 464.023438 327.691406 462.714844 332.003906 461.429688 C 340.730469 458.832031 346.292969 455.007812 348.53125 450.058594 C 349.988281 446.824219 349.929688 443.097656 349.878906 439.742188 Z M 349.59375 422.933594 " style=" stroke:none;fill-rule:nonzero;fill:rgb(97.647059%,84.705882%,53.72549%);fill-opacity:1;" />
<path d="M 334.289062 280.277344 C 335.398438 281.976562 337.414062 283 339.683594 283.015625 L 339.78125 283.015625 C 341.867188 282.964844 343.71875 282.109375 344.84375 280.703125 L 347.117188 280.429688 L 346.867188 265.976562 C 346.804688 262.460938 346.738281 258.476562 345.097656 255.007812 C 343.367188 251.363281 339.378906 247.011719 330.210938 247.011719 C 322.742188 247.011719 314.128906 249.898438 308.222656 252.320312 L 303.171875 254.390625 L 303.261719 256.496094 C 303.347656 258.449219 303.617188 260.007812 304.113281 261.375 C 305.222656 264.519531 307.621094 266.730469 310.351562 267.148438 C 310.703125 267.203125 311.0625 267.234375 311.421875 267.234375 C 313.988281 267.234375 316.1875 265.832031 318.386719 264.429688 C 319.8125 263.523438 321.160156 262.664062 322.601562 262.199219 C 323.292969 261.976562 324.023438 261.863281 324.777344 261.863281 C 326.296875 261.863281 327.84375 262.320312 329.257812 263.1875 C 331.378906 264.480469 332.796875 266.476562 333.144531 268.648438 C 333.347656 269.933594 333.277344 271.257812 333.167969 272.863281 C 332.996094 275.394531 332.816406 278.011719 334.289062 280.277344 Z M 334.289062 280.277344 " style=" stroke:none;fill-rule:nonzero;fill:rgb(97.647059%,84.705882%,53.72549%);fill-opacity:1;" />
<path d="M 315.875 314.46875 L 313.34375 286.410156 L 258.878906 308.433594 C 257.613281 308.941406 255.949219 309.460938 254.179688 310.019531 C 247.785156 312.019531 239.035156 314.761719 238.546875 320.65625 C 238.042969 326.941406 238.972656 333.808594 239.875 340.476562 L 239.929688 340.886719 C 240.21875 343.019531 240.515625 345.226562 240.746094 347.34375 L 241.15625 351.113281 L 306.632812 327.855469 C 310.042969 326.644531 313.507812 325.195312 315.117188 322.003906 C 316.25 319.753906 316.132812 317.257812 315.875 314.46875 Z M 315.875 314.46875 " style=" stroke:none;fill-rule:nonzero;fill:rgb(97.647059%,84.705882%,53.72549%);fill-opacity:1;" />
<path d="M 206.4375 448.542969 C 201.808594 451.957031 196.195312 454.117188 190.628906 454.628906 C 189.6875 454.714844 188.757812 454.757812 187.867188 454.757812 C 183.136719 454.757812 178.363281 453.664062 174.058594 451.59375 L 169.691406 449.492188 L 169.964844 468.847656 L 171.625 469.65625 C 177.710938 472.617188 183.578125 474.117188 189.066406 474.117188 L 189.289062 474.117188 C 197.855469 474.0625 205.691406 470.144531 209.785156 463.917969 L 211.242188 463.191406 L 211.207031 445.027344 Z M 206.4375 448.542969 " style=" stroke:none;fill-rule:nonzero;fill:rgb(97.647059%,84.705882%,53.72549%);fill-opacity:1;" />
<path d="M 188.003906 337.953125 C 195.425781 337.542969 202.691406 334.761719 208.445312 330.15625 L 210.984375 330.03125 L 210.945312 311.898438 L 206.339844 314.851562 C 201.167969 318.160156 195.234375 320.054688 189.195312 320.320312 C 188.703125 320.335938 188.210938 320.347656 187.71875 320.347656 C 182.367188 320.347656 176.972656 319.054688 172.117188 316.605469 L 167.691406 314.378906 L 167.972656 333.210938 L 169.585938 334.03125 C 174.699219 336.632812 180.390625 338.007812 186.042969 338.007812 C 186.699219 338.007812 187.355469 337.988281 188.003906 337.953125 Z M 188.003906 337.953125 " style=" stroke:none;fill-rule:nonzero;fill:rgb(97.647059%,84.705882%,53.72549%);fill-opacity:1;" />
<path d="M 76.734375 307.328125 L 76.050781 307.300781 C 74.980469 307.253906 73.875 307.207031 72.734375 307.207031 C 69.761719 307.207031 65.972656 307.492188 63.039062 309.714844 C 58.957031 312.800781 58.632812 317.828125 58.34375 322.292969 L 58.277344 323.40625 C 58.089844 326.066406 57.945312 328.800781 57.824219 331.152344 L 57.804688 331.484375 C 57.554688 336.371094 57.292969 341.421875 56.683594 346.292969 L 56.664062 346.457031 C 56.53125 348.367188 56.488281 350.222656 57.382812 351.867188 C 58.839844 354.554688 62.195312 355.371094 64.195312 355.859375 L 87.675781 361.625 L 89.496094 317.71875 C 89.628906 314.378906 88.964844 311.960938 87.464844 310.335938 C 85.183594 307.855469 81.246094 307.507812 76.734375 307.328125 Z M 76.734375 307.328125 " style=" stroke:none;fill-rule:nonzero;fill:rgb(97.647059%,84.705882%,53.72549%);fill-opacity:1;" />
<path d="M 30.273438 291.738281 C 31.128906 291.738281 31.972656 291.628906 32.78125 291.414062 C 36.632812 290.390625 39.660156 287.054688 40.320312 283.101562 C 40.652344 281.019531 40.339844 278.960938 40.03125 276.902344 C 39.894531 276.078125 39.746094 275.101562 39.667969 274.117188 C 39.40625 270.867188 40.367188 268.332031 42.246094 267.332031 C 42.839844 267.015625 43.53125 266.855469 44.300781 266.855469 C 45.574219 266.855469 47.054688 267.289062 48.59375 268.125 C 49.132812 268.414062 49.65625 268.730469 50.179688 269.042969 L 50.46875 269.21875 C 51.96875 270.136719 53.664062 271.175781 55.601562 271.648438 C 56.300781 271.816406 57.027344 271.898438 57.761719 271.898438 C 60.679688 271.898438 63.492188 270.597656 65.289062 268.425781 C 67.589844 265.652344 68.140625 261.585938 66.699219 258.375 L 66.238281 256.859375 L 62.21875 255.605469 C 53.3125 252.828125 45.867188 251.417969 40.09375 251.417969 C 35.285156 251.417969 31.53125 252.394531 28.929688 254.3125 C 25.851562 256.574219 24.289062 260.246094 24.289062 265.21875 L 24.277344 290.128906 L 26.125 290.898438 C 27.449219 291.445312 28.882812 291.738281 30.273438 291.738281 Z M 30.273438 291.738281 " style=" stroke:none;fill-rule:nonzero;fill:rgb(97.647059%,84.705882%,53.72549%);fill-opacity:1;" />
<path d="M 52.015625 460.539062 C 51.765625 460.507812 51.507812 460.492188 51.246094 460.492188 C 50.027344 460.492188 48.839844 460.824219 47.78125 461.121094 C 46.871094 461.378906 45.84375 461.667969 44.882812 461.667969 C 44.722656 461.667969 44.5625 461.660156 44.390625 461.644531 C 41.785156 461.371094 40.03125 458.558594 39.703125 456.050781 C 39.382812 453.65625 39.910156 451.269531 40.46875 448.726562 L 40.574219 448.25 C 40.644531 447.925781 40.71875 447.601562 40.773438 447.308594 C 42.03125 441.277344 40.988281 436.703125 37.828125 434.417969 C 36.484375 433.457031 34.898438 432.972656 33.105469 432.972656 C 31.136719 432.972656 28.847656 433.570312 26.113281 434.804688 L 24.34375 435.601562 L 24.363281 443.335938 C 24.375 447.40625 24.386719 451.480469 24.40625 455.5625 C 24.453125 460.730469 24.738281 465.285156 27.777344 468.683594 C 32.214844 473.664062 41.589844 475.4375 49.128906 476.863281 L 49.390625 476.914062 C 50.550781 477.136719 51.671875 477.347656 52.746094 477.566406 L 55.046875 478.039062 L 56.054688 475.921875 C 57.023438 473.894531 58.128906 471.207031 58.089844 468.375 C 58.039062 464.871094 55.75 460.984375 52.015625 460.539062 Z M 52.015625 460.539062 " style=" stroke:none;fill-rule:nonzero;fill:rgb(97.647059%,84.705882%,53.72549%);fill-opacity:1;" />
<path d="M 370.613281 367.191406 C 371.976562 365.238281 373.015625 363.101562 373.640625 360.851562 C 375.578125 353.890625 373.285156 346.390625 368.253906 341.976562 C 370.953125 337.535156 371.890625 332.1875 370.574219 327.316406 C 368.914062 321.1875 365.449219 318.320312 362.839844 316.992188 C 359.734375 315.414062 355.917969 315.03125 351.792969 315.804688 L 350.929688 265.917969 C 350.867188 262.183594 350.792969 257.53125 348.773438 253.269531 C 345.292969 245.9375 338.234375 242.507812 328.265625 243.039062 C 328.082031 242.828125 327.875 242.632812 327.632812 242.464844 C 314.28125 233.265625 295.433594 229.453125 276.640625 232.023438 C 267.84375 222.535156 256.4375 215.605469 244.011719 212.089844 C 249.222656 207.109375 253.855469 201.539062 257.808594 195.515625 C 261.800781 197.183594 265.519531 197.894531 269.164062 197.894531 C 274.109375 197.894531 278.917969 196.597656 284.066406 194.664062 C 291.746094 191.777344 297.453125 186.746094 300.136719 180.496094 C 303.746094 172.097656 301.304688 161.707031 294.328125 155.800781 C 289.960938 152.097656 284.160156 150.441406 278.539062 150.925781 C 285.039062 146.707031 290.46875 140.230469 293.695312 132.332031 C 298.175781 121.355469 298.703125 107.9375 295.257812 92.460938 C 286.160156 51.546875 255.019531 17.199219 215.9375 4.953125 C 175.828125 -7.613281 130.128906 4.265625 102.214844 34.5 C 86.300781 51.742188 76.683594 74.691406 75.136719 99.121094 C 75.113281 99.484375 73.167969 132.480469 83.714844 146.972656 C 76.8125 148.097656 68.554688 150.878906 62.433594 157.472656 C 55.078125 165.394531 53.488281 177.101562 58.652344 185.308594 C 62.589844 191.5625 70.304688 195.519531 78.785156 195.636719 C 78.929688 195.636719 79.074219 195.640625 79.21875 195.640625 C 85.417969 195.636719 91.90625 193.832031 99.585938 189.96875 C 99.625 189.953125 99.652344 189.925781 99.6875 189.90625 C 104.132812 197.882812 109.730469 205.210938 116.28125 211.589844 C 100.824219 216.71875 86.472656 225.265625 74.628906 236.441406 C 74.347656 236.703125 74.140625 237.003906 73.964844 237.324219 C 61.671875 237.847656 49.789062 240.5 38.574219 245.292969 C 37.574219 245.722656 36.886719 246.5625 36.597656 247.527344 C 32.488281 247.9375 29.136719 249.105469 26.515625 251.03125 C 22.335938 254.105469 20.21875 258.878906 20.21875 265.21875 C 20.21875 277.464844 20.207031 289.703125 20.199219 301.945312 L 20.1875 315.417969 C 12.527344 315.132812 6.878906 319.363281 4.714844 327.324219 C 3.402344 332.191406 4.339844 337.539062 7.039062 341.980469 C 2.007812 346.394531 -0.285156 353.890625 1.652344 360.851562 C 2.277344 363.101562 3.3125 365.238281 4.679688 367.191406 C -0.871094 375.023438 -0.90625 386.300781 4.644531 394.140625 C 5.453125 395.28125 6.371094 396.335938 7.378906 397.296875 C 4 402.277344 3.945312 409.554688 7.523438 414.914062 C 10.285156 419.058594 14.9375 421.964844 20.21875 423.019531 C 20.242188 433.871094 20.285156 444.71875 20.339844 455.574219 C 20.375 460.203125 20.414062 466.539062 24.742188 471.394531 C 30.101562 477.410156 39.808594 479.246094 48.375 480.867188 C 50.585938 481.285156 52.667969 481.679688 54.472656 482.113281 C 67.476562 485.230469 80.476562 488.359375 93.480469 491.488281 C 113.1875 496.222656 132.902344 500.96875 152.621094 505.714844 C 155.226562 506.335938 157.90625 507.128906 160.742188 507.960938 C 166.25 509.585938 171.945312 511.265625 177.542969 511.816406 C 178.8125 511.9375 180.082031 511.996094 181.347656 511.996094 C 189.503906 511.996094 197.582031 509.589844 205.800781 506.886719 C 218.742188 502.636719 231.878906 498.222656 244.585938 493.957031 C 273.527344 484.238281 303.457031 474.1875 333.160156 465.332031 C 343.074219 462.386719 349.496094 457.8125 352.242188 451.726562 C 354.082031 447.644531 354.007812 443.40625 353.941406 439.667969 L 353.660156 423.257812 C 359.515625 422.46875 364.761719 419.421875 367.765625 414.914062 C 371.34375 409.550781 371.289062 402.273438 367.910156 397.296875 C 368.917969 396.335938 369.835938 395.28125 370.644531 394.136719 C 376.199219 386.296875 376.164062 375.019531 370.613281 367.191406 Z M 364.878906 390.054688 C 361.035156 395.484375 353.335938 398.132812 346.960938 396.210938 C 343.269531 395.097656 340.074219 392.5625 338.414062 389.425781 C 336.078125 385.015625 336.769531 379.183594 340.023438 375.410156 C 342.976562 376.984375 346.390625 377.789062 349.945312 377.789062 C 352.542969 377.789062 355.214844 377.363281 357.839844 376.503906 C 360.691406 375.570312 363.304688 374.167969 365.578125 372.421875 C 368.640625 377.742188 368.425781 385.050781 364.878906 390.054688 Z M 343.980469 351.894531 C 344.636719 352.007812 345.296875 352.09375 345.964844 352.15625 C 346.101562 352.167969 346.242188 352.1875 346.382812 352.199219 C 347 352.25 347.617188 352.273438 348.234375 352.28125 C 348.324219 352.28125 348.414062 352.292969 348.5 352.292969 C 348.625 352.292969 348.746094 352.292969 348.871094 352.289062 C 348.871094 352.289062 348.871094 352.289062 348.875 352.289062 C 348.878906 352.289062 348.882812 352.289062 348.890625 352.289062 C 348.894531 352.289062 348.898438 352.289062 348.902344 352.289062 C 354.421875 352.230469 359.613281 350.453125 363.582031 347.285156 C 366.566406 349.933594 368.003906 354.738281 366.832031 358.957031 C 365.476562 363.820312 361.191406 367.96875 355.640625 369.785156 C 351.203125 371.238281 346.683594 371 343.246094 369.121094 C 340.074219 367.394531 337.722656 364.109375 337.113281 360.546875 C 336.519531 357.121094 337.546875 353.40625 339.769531 350.734375 C 341.078125 351.230469 342.480469 351.628906 343.980469 351.894531 Z M 355.753906 322.460938 C 357.226562 322.460938 358.542969 322.738281 359.636719 323.292969 C 361.582031 324.28125 362.964844 326.253906 363.753906 329.160156 C 364.902344 333.421875 363.089844 338.550781 359.34375 341.636719 C 356.582031 343.910156 352.839844 345.183594 348.785156 345.222656 C 347.574219 345.25 346.390625 345.144531 345.210938 344.933594 C 341.773438 344.328125 339.09375 342.828125 337.867188 340.820312 C 335.839844 337.503906 337.527344 332.761719 340.148438 329.980469 C 340.449219 329.660156 340.765625 329.347656 341.101562 329.035156 C 343.4375 326.859375 346.53125 324.921875 349.609375 323.738281 C 349.613281 323.738281 349.613281 323.738281 349.613281 323.738281 C 351.835938 322.886719 353.917969 322.460938 355.753906 322.460938 Z M 342.390625 256.296875 C 343.753906 259.171875 343.808594 262.660156 343.863281 266.035156 L 344.066406 277.777344 C 343.5 277.847656 342.964844 278.148438 342.621094 278.660156 C 342.066406 279.5 340.9375 279.980469 339.703125 280.015625 C 338.460938 280.011719 337.347656 279.480469 336.800781 278.632812 C 335.878906 277.210938 336.007812 275.289062 336.15625 273.0625 C 336.261719 271.480469 336.371094 269.84375 336.105469 268.1875 C 335.613281 265.136719 333.6875 262.378906 330.816406 260.621094 C 327.949219 258.863281 324.613281 258.398438 321.675781 259.347656 C 319.851562 259.9375 318.257812 260.953125 316.714844 261.9375 C 314.566406 263.308594 312.714844 264.484375 310.816406 264.191406 C 309.191406 263.933594 307.667969 262.4375 306.933594 260.375 C 306.488281 259.125 306.316406 257.757812 306.257812 256.359375 L 309.355469 255.09375 C 319.503906 250.9375 337.296875 245.574219 342.390625 256.296875 Z M 63.433594 251.722656 C 60.761719 250.890625 58.242188 250.191406 55.828125 249.597656 C 93.761719 254.816406 131.320312 266.460938 165.640625 283.617188 Z M 118.574219 218.277344 C 122.390625 228.925781 126.800781 239.421875 131.753906 249.617188 C 129.070312 248.410156 126.355469 247.246094 123.582031 246.164062 C 110.289062 240.980469 97.074219 238.054688 84.214844 237.378906 C 94.335938 228.941406 106.066406 222.414062 118.574219 218.277344 Z M 268.234375 233.597656 C 254.972656 236.71875 241.875 242.804688 229.171875 251.753906 L 241.304688 218.660156 C 251.328125 221.351562 260.640625 226.523438 268.234375 233.597656 Z M 171.011719 335.859375 C 175.734375 337.9375 180.886719 339.046875 186.050781 339.046875 C 186.71875 339.046875 187.394531 339.027344 188.066406 338.988281 C 195.214844 338.59375 202.21875 336.054688 207.988281 331.816406 L 208.210938 445.75 C 203.390625 450.15625 197.023438 452.996094 190.53125 453.597656 C 184.414062 454.164062 178.042969 452.75 172.6875 449.699219 Z M 207.976562 327.175781 C 207.566406 327.199219 207.164062 327.34375 206.824219 327.621094 C 201.46875 331.96875 194.726562 334.574219 187.839844 334.957031 C 182.015625 335.28125 176.132812 334 170.945312 331.351562 L 170.769531 319.285156 C 176.003906 321.921875 181.855469 323.347656 187.714844 323.347656 C 188.246094 323.347656 188.777344 323.335938 189.304688 323.3125 C 195.894531 323.027344 202.402344 320.9375 207.957031 317.371094 Z M 191.144531 287.070312 C 184.242188 281.882812 177.230469 276.699219 170.011719 271.71875 L 183.238281 254.492188 L 204.058594 273.445312 C 199.609375 277.929688 195.335938 282.507812 191.144531 287.070312 Z M 142.242188 254.722656 C 138.289062 247.167969 134.640625 239.414062 131.316406 231.527344 C 143.484375 244.492188 160.90625 252.332031 178.839844 252.332031 C 179.089844 252.332031 179.34375 252.328125 179.589844 252.328125 C 179.667969 252.324219 179.742188 252.320312 179.816406 252.320312 L 166.671875 269.441406 C 158.84375 264.164062 150.742188 259.179688 142.242188 254.722656 Z M 206.933594 270.601562 L 186.355469 251.867188 C 204.140625 249.699219 220.6875 239.964844 231.261719 225.523438 L 218.769531 259.605469 C 218.738281 259.683594 218.730469 259.765625 218.707031 259.84375 C 214.605469 263.289062 210.707031 266.90625 206.933594 270.601562 Z M 179.542969 248.285156 C 159.695312 248.523438 139.761719 237.949219 128.519531 221.601562 C 129.933594 222.5625 131.371094 223.492188 132.84375 224.375 C 147.261719 233.019531 163.921875 237.402344 180.589844 237.402344 C 193.808594 237.402344 207.03125 234.644531 219.136719 229.070312 C 221.542969 227.964844 223.890625 226.746094 226.175781 225.433594 C 214.894531 239.199219 197.277344 248.070312 179.542969 248.285156 Z M 121.015625 252.75 C 140.757812 260.453125 158.253906 271.78125 174.871094 283.824219 C 139.230469 264.929688 99.808594 251.996094 59.882812 246.085938 C 79.152344 242.304688 99.949219 244.53125 121.015625 252.75 Z M 172.753906 454.292969 C 177.441406 456.550781 182.679688 457.757812 187.871094 457.757812 C 188.882812 457.757812 189.894531 457.710938 190.898438 457.617188 C 197.09375 457.046875 203.183594 454.667969 208.21875 450.953125 L 208.238281 461.339844 C 207.914062 461.496094 207.625 461.734375 207.414062 462.0625 C 203.878906 467.59375 196.925781 471.0625 189.269531 471.117188 C 189.203125 471.121094 189.136719 471.121094 189.070312 471.121094 C 184 471.121094 178.589844 469.707031 172.9375 466.957031 Z M 207.949219 312.449219 C 202.5625 316.554688 195.898438 318.984375 189.128906 319.277344 C 182.707031 319.566406 176.230469 317.90625 170.699219 314.648438 L 170.375 292.515625 C 171.742188 292.960938 173.125 293.433594 174.578125 293.933594 C 179.445312 295.621094 184.480469 297.363281 189.753906 298.15625 C 193.242188 298.683594 196.429688 298.734375 199.496094 298.308594 C 202.410156 297.90625 205.199219 297.1875 207.917969 296.320312 Z M 208.125 288.785156 C 231.613281 272.183594 259.066406 260.984375 287.46875 256.417969 L 214.917969 286.132812 C 212.683594 287.042969 210.417969 287.960938 208.125 288.785156 Z M 306.675781 248.550781 L 301.523438 250.664062 C 301.492188 250.664062 301.464844 250.660156 301.433594 250.664062 C 274.828125 252.820312 248.59375 260.753906 225.058594 273.519531 C 251.828125 255.238281 283.699219 244.84375 316.339844 244.15625 C 316.792969 244.367188 317.234375 244.585938 317.679688 244.808594 C 314.234375 245.71875 310.566406 246.960938 306.675781 248.550781 Z M 306.417969 240.601562 C 265.429688 243.863281 226.316406 261.980469 197.382812 291.417969 C 197.214844 291.433594 197.050781 291.457031 196.878906 291.46875 C 196.851562 291.4375 196.8125 291.410156 196.785156 291.378906 C 206.539062 280.765625 216.734375 270.085938 228.445312 261.058594 C 243.382812 249.542969 258.867188 242.292969 274.472656 239.507812 C 285.472656 237.546875 296.5625 238 306.417969 240.601562 Z M 289.761719 161.1875 C 294.347656 165.078125 296.019531 172.179688 293.644531 177.707031 C 291.757812 182.105469 287.359375 185.875 281.582031 188.042969 C 274.164062 190.832031 268.394531 191.949219 261.519531 189.386719 C 266.460938 180.441406 269.957031 170.691406 271.6875 160.535156 C 272.082031 160.445312 272.46875 160.300781 272.832031 160.070312 C 277.894531 156.820312 285.171875 157.300781 289.761719 161.1875 Z M 82.191406 99.566406 C 83.636719 76.75 92.59375 55.34375 107.410156 39.292969 C 120.191406 25.449219 137.195312 15.5 156.585938 10.527344 C 175.835938 5.589844 195.628906 5.992188 213.824219 11.695312 C 250.542969 23.199219 279.800781 55.5 288.363281 93.988281 C 291.488281 108.035156 291.082031 120.035156 287.152344 129.65625 C 282.488281 141.082031 271.917969 149.125 261.441406 149.214844 C 261.375 149.21875 261.308594 149.21875 261.242188 149.21875 C 247.851562 149.21875 237.363281 137.421875 233.265625 126.410156 C 228.449219 113.460938 229.222656 98.523438 229.90625 85.347656 C 229.988281 83.769531 229.015625 82.332031 227.519531 81.820312 C 227.144531 81.691406 226.761719 81.628906 226.378906 81.628906 C 225.246094 81.628906 224.148438 82.175781 223.476562 83.148438 C 213.894531 96.925781 195.722656 104.183594 179.28125 100.792969 C 162.84375 97.40625 149.023438 83.554688 145.671875 67.109375 C 145.328125 65.417969 143.8125 64.25 142.089844 64.28125 C 140.367188 64.339844 138.9375 65.632812 138.707031 67.339844 C 136.324219 84.929688 133.863281 103.121094 125.824219 119.050781 C 120.535156 129.523438 110.253906 142.933594 98.671875 146.246094 C 95.808594 147.066406 93.535156 146.691406 91.507812 145.0625 C 82.734375 137.996094 81.441406 111.359375 82.191406 99.566406 Z M 96.417969 183.652344 C 89.753906 187 84.273438 188.570312 79.214844 188.570312 C 79.101562 188.570312 78.992188 188.566406 78.882812 188.566406 C 72.769531 188.484375 67.3125 185.789062 64.636719 181.539062 C 61.203125 176.085938 62.484375 167.804688 67.617188 162.277344 C 72.152344 157.394531 79.488281 154.285156 88.28125 153.519531 C 89.265625 163.972656 92.097656 174.164062 96.488281 183.625 C 96.464844 183.636719 96.4375 183.640625 96.417969 183.652344 Z M 95.40625 153.703125 C 97.082031 153.765625 98.824219 153.554688 100.617188 153.042969 C 114.375 149.105469 125.917969 134.542969 132.132812 122.234375 C 138.503906 109.617188 141.605469 95.539062 143.742188 82.035156 C 150.792969 94.886719 163.464844 104.75 177.855469 107.714844 C 193.558594 110.953125 210.632812 105.835938 222.40625 95.027344 C 222.089844 106.15625 222.570312 117.925781 226.644531 128.875 C 231.566406 142.113281 244.476562 156.285156 261.242188 156.285156 C 261.328125 156.285156 261.417969 156.285156 261.503906 156.285156 C 263.617188 156.265625 265.710938 155.988281 267.773438 155.519531 C 267.628906 155.808594 267.519531 156.109375 267.457031 156.425781 C 266.09375 156.726562 264.976562 157.820312 264.730469 159.285156 C 260.074219 186.730469 241.472656 211.011719 216.183594 222.652344 C 190.894531 234.289062 160.355469 232.625 136.476562 218.3125 C 113.648438 204.625 98.164062 180.113281 95.40625 153.703125 Z M 30.707031 256.722656 C 34.109375 254.222656 42.179688 252.496094 61.328125 258.46875 L 63.832031 259.25 C 63.859375 259.34375 63.886719 259.441406 63.925781 259.53125 C 64.929688 261.757812 64.542969 264.628906 62.980469 266.511719 C 61.421875 268.390625 58.675781 269.300781 56.296875 268.730469 C 54.855469 268.378906 53.488281 267.542969 52.035156 266.660156 C 51.363281 266.25 50.691406 265.84375 50.007812 265.472656 C 46.585938 263.625 43.328125 263.351562 40.824219 264.6875 C 37.871094 266.269531 36.316406 269.882812 36.675781 274.355469 C 36.757812 275.390625 36.914062 276.402344 37.0625 277.382812 C 37.351562 279.238281 37.621094 280.996094 37.351562 282.625 C 36.898438 285.375 34.703125 287.796875 32.011719 288.515625 C 30.457031 288.925781 28.769531 288.75 27.277344 288.125 C 27.28125 280.488281 27.289062 272.855469 27.289062 265.21875 C 27.289062 261.195312 28.40625 258.414062 30.707031 256.722656 Z M 11.542969 329.167969 C 12.027344 327.378906 13.367188 322.453125 19.5 322.453125 C 20.507812 322.453125 21.640625 322.585938 22.917969 322.886719 C 27.226562 323.894531 32.027344 326.679688 35.148438 329.984375 C 36.460938 331.371094 37.535156 333.25 38.035156 335.199219 C 38.53125 337.144531 38.445312 339.160156 37.433594 340.816406 C 36.199219 342.828125 33.523438 344.328125 30.085938 344.933594 C 29.59375 345.019531 29.101562 345.085938 28.609375 345.136719 C 27.125 345.28125 25.636719 345.253906 24.152344 345.054688 C 20.992188 344.640625 18.15625 343.460938 15.953125 341.636719 C 12.207031 338.550781 10.394531 333.421875 11.542969 329.167969 Z M 10.417969 390.054688 C 6.871094 385.050781 6.65625 377.742188 9.71875 372.421875 C 11.992188 374.167969 14.605469 375.570312 17.457031 376.5 C 20.082031 377.363281 22.753906 377.785156 25.351562 377.785156 C 28.90625 377.785156 32.316406 376.984375 35.273438 375.410156 C 38.527344 379.183594 39.21875 385.015625 36.882812 389.425781 C 35.222656 392.5625 32.027344 395.097656 28.335938 396.210938 C 21.964844 398.136719 14.261719 395.484375 10.417969 390.054688 Z M 38.183594 360.546875 C 37.574219 364.109375 35.222656 367.394531 32.050781 369.121094 C 28.617188 370.996094 24.097656 371.238281 19.65625 369.785156 C 14.105469 367.96875 9.816406 363.820312 8.464844 358.957031 C 7.292969 354.738281 8.730469 349.9375 11.714844 347.285156 C 14.898438 349.835938 18.867188 351.492188 23.222656 352.0625 C 24.386719 352.21875 25.550781 352.296875 26.71875 352.296875 C 28.253906 352.296875 29.789062 352.160156 31.308594 351.894531 C 31.996094 351.773438 32.667969 351.625 33.316406 351.453125 C 34.085938 351.25 34.816406 351.003906 35.523438 350.730469 C 37.75 353.402344 38.777344 357.117188 38.183594 360.546875 Z M 13.40625 410.992188 C 11.4375 408.039062 11.40625 403.980469 13.171875 401.34375 C 16.515625 403.007812 20.25 403.90625 23.980469 403.90625 C 26.136719 403.90625 28.292969 403.605469 30.375 402.976562 C 31.519531 402.632812 32.609375 402.183594 33.667969 401.671875 C 33.851562 402.066406 34.109375 402.4375 34.449219 402.75 C 36.628906 404.785156 36.789062 409.027344 34.789062 411.832031 C 32.761719 414.671875 28.851562 416.4375 24.566406 416.398438 C 19.890625 416.375 15.613281 414.304688 13.40625 410.992188 Z M 30.019531 466.6875 C 27.660156 464.042969 27.441406 460.066406 27.414062 455.53125 C 27.382812 449.53125 27.371094 443.535156 27.34375 437.539062 C 31.425781 435.695312 34.167969 435.492188 36.074219 436.863281 C 38.960938 438.941406 38.421875 443.914062 37.84375 446.695312 C 37.746094 447.160156 37.640625 447.628906 37.539062 448.09375 C 36.949219 450.769531 36.339844 453.535156 36.722656 456.445312 C 37.21875 460.175781 39.902344 464.183594 44.078125 464.628906 C 45.734375 464.8125 47.257812 464.382812 48.601562 464.007812 C 49.710938 463.699219 50.757812 463.40625 51.644531 463.515625 C 53.667969 463.761719 55.058594 466.25 55.089844 468.417969 C 55.117188 470.511719 54.292969 472.640625 53.351562 474.632812 C 52.175781 474.390625 50.957031 474.160156 49.691406 473.921875 C 42.605469 472.578125 33.78125 470.910156 30.019531 466.6875 Z M 154.273438 498.839844 C 134.558594 494.097656 114.839844 489.351562 95.136719 484.617188 C 82.546875 481.585938 69.960938 478.558594 57.375 475.539062 C 58.335938 473.378906 59.160156 470.949219 59.125 468.367188 C 59.074219 464.425781 56.445312 460.03125 52.132812 459.503906 C 50.441406 459.300781 48.886719 459.734375 47.515625 460.117188 C 46.421875 460.421875 45.390625 460.703125 44.507812 460.613281 C 42.5 460.398438 41.007812 458.054688 40.726562 455.910156 C 40.433594 453.707031 40.941406 451.402344 41.480469 448.964844 C 41.585938 448.480469 41.691406 448 41.792969 447.519531 C 43.140625 441.058594 41.945312 436.109375 38.429688 433.582031 C 35.046875 431.148438 31.027344 431.734375 27.324219 433.15625 C 27.3125 429.875 27.296875 426.589844 27.289062 423.304688 C 32.796875 422.660156 37.625 420.015625 40.539062 415.933594 C 44.558594 410.296875 44.023438 402.160156 39.378906 397.699219 C 40.882812 396.238281 42.15625 394.5625 43.125 392.730469 C 46.742188 385.898438 45.722656 376.894531 40.773438 370.976562 C 43.011719 368.367188 44.558594 365.175781 45.148438 361.746094 C 46.042969 356.542969 44.695312 351.117188 41.535156 346.925781 C 42.269531 346.183594 42.921875 345.378906 43.457031 344.507812 C 43.457031 344.507812 43.457031 344.503906 43.457031 344.503906 C 47.355469 338.128906 44.816406 329.933594 40.285156 325.128906 C 39.8125 324.628906 39.308594 324.140625 38.785156 323.664062 C 38.617188 323.511719 38.441406 323.367188 38.269531 323.21875 C 37.902344 322.898438 37.527344 322.582031 37.140625 322.273438 C 36.933594 322.109375 36.71875 321.945312 36.503906 321.785156 C 36.132812 321.503906 35.753906 321.230469 35.371094 320.960938 C 35.144531 320.808594 34.917969 320.652344 34.691406 320.503906 C 34.285156 320.234375 33.871094 319.980469 33.453125 319.730469 C 33.238281 319.601562 33.03125 319.46875 32.8125 319.347656 C 32.28125 319.042969 31.738281 318.753906 31.191406 318.480469 C 31.089844 318.429688 30.988281 318.371094 30.882812 318.316406 C 30.230469 317.996094 29.574219 317.703125 28.910156 317.429688 C 28.726562 317.355469 28.539062 317.289062 28.351562 317.21875 C 27.988281 317.074219 27.621094 316.925781 27.257812 316.796875 L 27.265625 301.949219 C 27.269531 298.761719 27.269531 295.574219 27.273438 292.390625 C 28.230469 292.640625 29.214844 292.785156 30.210938 292.785156 C 31.160156 292.785156 32.117188 292.667969 33.046875 292.417969 C 37.292969 291.289062 40.625 287.617188 41.335938 283.285156 C 41.710938 281.015625 41.375 278.855469 41.054688 276.765625 C 40.90625 275.816406 40.769531 274.921875 40.699219 274.035156 C 40.53125 271.957031 40.964844 269.191406 42.726562 268.25 C 44.5 267.300781 47.066406 268.480469 48.085938 269.027344 C 48.710938 269.367188 49.320312 269.738281 49.929688 270.109375 C 51.582031 271.117188 53.289062 272.160156 55.34375 272.65625 C 59.230469 273.597656 63.542969 272.160156 66.085938 269.089844 C 68.007812 266.773438 68.824219 263.640625 68.410156 260.679688 L 163.269531 290.28125 L 165.839844 465.125 C 165.804688 465.175781 165.765625 465.21875 165.734375 465.269531 C 165.292969 466.003906 165.378906 466.90625 165.875 467.542969 L 166.386719 502.242188 C 165.167969 501.894531 163.949219 501.539062 162.742188 501.183594 C 159.945312 500.359375 157.054688 499.503906 154.273438 498.839844 Z M 203.597656 500.171875 C 196.589844 502.480469 186.992188 505.632812 178.234375 504.78125 C 176.667969 504.625 175.050781 504.351562 173.414062 504.011719 C 173.457031 503.789062 173.476562 503.554688 173.476562 503.320312 L 173.007812 471.441406 C 178.5625 473.898438 183.945312 475.15625 189.070312 475.15625 C 189.148438 475.15625 189.222656 475.15625 189.300781 475.15625 C 196.746094 475.101562 203.664062 472.226562 208.25 467.46875 L 208.308594 498.246094 C 208.308594 498.367188 208.335938 498.484375 208.347656 498.605469 C 206.761719 499.128906 205.175781 499.652344 203.597656 500.171875 Z M 242.335938 487.257812 C 233.488281 490.230469 224.429688 493.269531 215.375 496.277344 L 214.980469 294.035156 C 214.980469 293.9375 214.957031 293.84375 214.949219 293.746094 C 215.847656 293.386719 216.746094 293.023438 217.632812 292.660156 L 302.328125 257.972656 C 302.457031 259.226562 302.6875 260.492188 303.128906 261.730469 C 304.371094 265.21875 307.074219 267.6875 310.1875 268.179688 C 313.597656 268.710938 316.40625 266.925781 318.886719 265.34375 C 320.273438 264.457031 321.585938 263.621094 322.917969 263.191406 C 324.730469 262.605469 326.84375 262.925781 328.707031 264.066406 C 330.570312 265.207031 331.8125 266.941406 332.117188 268.828125 C 332.3125 270.03125 332.222656 271.371094 332.128906 272.792969 C 331.957031 275.363281 331.761719 278.277344 333.410156 280.824219 C 334.707031 282.835938 337.054688 284.042969 339.683594 284.054688 C 339.699219 284.054688 339.714844 284.054688 339.726562 284.054688 C 341.375 284.054688 342.914062 283.582031 344.152344 282.738281 L 344.765625 318.132812 C 344.539062 318.242188 344.320312 318.359375 344.097656 318.472656 C 343.917969 318.558594 343.742188 318.644531 343.566406 318.738281 C 343.136719 318.960938 342.714844 319.199219 342.292969 319.441406 C 342.21875 319.484375 342.140625 319.527344 342.066406 319.570312 C 341.578125 319.859375 341.097656 320.160156 340.625 320.472656 C 340.472656 320.574219 340.324219 320.679688 340.171875 320.78125 C 339.847656 321 339.53125 321.21875 339.21875 321.449219 C 339.046875 321.574219 338.878906 321.703125 338.707031 321.832031 C 338.421875 322.050781 338.140625 322.269531 337.863281 322.496094 C 337.699219 322.628906 337.539062 322.761719 337.375 322.898438 C 337.089844 323.140625 336.8125 323.386719 336.539062 323.636719 C 336.40625 323.757812 336.269531 323.875 336.140625 323.996094 C 335.746094 324.371094 335.363281 324.746094 335 325.132812 C 330.476562 329.933594 327.933594 338.128906 331.835938 344.507812 C 332.371094 345.378906 333.019531 346.183594 333.757812 346.925781 C 330.597656 351.121094 329.246094 356.542969 330.144531 361.746094 C 330.734375 365.175781 332.28125 368.367188 334.515625 370.980469 C 329.566406 376.894531 328.550781 385.902344 332.167969 392.730469 C 333.136719 394.566406 334.410156 396.238281 335.914062 397.699219 C 331.265625 402.160156 330.734375 410.300781 334.753906 415.9375 C 336.121094 417.851562 337.917969 419.445312 340 420.671875 C 338.09375 421.148438 336.285156 422.039062 334.769531 423.335938 C 330.738281 426.769531 329.175781 432.652344 330.96875 437.632812 C 331.222656 438.34375 331.535156 439.035156 331.835938 439.703125 C 332.726562 441.691406 333.238281 442.972656 332.800781 444 C 332.34375 445.074219 330.773438 445.589844 329.570312 445.703125 C 328.753906 445.78125 327.898438 445.757812 326.992188 445.734375 C 325.875 445.703125 324.722656 445.671875 323.519531 445.824219 C 319.261719 446.367188 315.433594 449.273438 313.765625 453.226562 C 312.347656 456.578125 312.574219 460.507812 314.242188 463.71875 C 290.035156 471.25 265.863281 479.355469 242.335938 487.257812 Z M 345.804688 448.824219 C 343.484375 453.960938 336.554688 456.953125 331.148438 458.558594 C 326.832031 459.84375 322.515625 461.160156 318.199219 462.488281 C 316.757812 460.253906 316.457031 457.242188 317.488281 454.796875 C 318.589844 452.1875 321.21875 450.1875 324.035156 449.832031 C 324.921875 449.71875 325.875 449.742188 326.882812 449.769531 C 327.871094 449.800781 328.894531 449.828125 329.957031 449.726562 C 333.089844 449.425781 335.542969 447.878906 336.519531 445.582031 C 337.683594 442.851562 336.484375 440.1875 335.519531 438.046875 C 335.238281 437.421875 334.972656 436.832031 334.769531 436.269531 C 333.554688 432.886719 334.65625 428.742188 337.390625 426.410156 C 339.871094 424.296875 343.601562 423.765625 346.625 424.976562 L 346.878906 439.792969 C 346.933594 442.9375 346.992188 446.1875 345.804688 448.824219 Z M 361.890625 410.992188 C 359.679688 414.304688 355.40625 416.375 350.730469 416.398438 C 350.703125 416.398438 350.675781 416.398438 350.648438 416.398438 C 346.402344 416.398438 342.523438 414.652344 340.507812 411.832031 C 338.507812 409.027344 338.667969 404.785156 340.847656 402.75 C 341.1875 402.4375 341.445312 402.066406 341.628906 401.671875 C 342.6875 402.183594 343.777344 402.632812 344.917969 402.976562 C 347 403.605469 349.15625 403.90625 351.316406 403.90625 C 355.046875 403.90625 358.78125 403.007812 362.125 401.34375 C 363.890625 403.980469 363.859375 408.039062 361.890625 410.992188 Z M 361.890625 410.992188 " style=" stroke:none;fill-rule:nonzero;fill:rgb(0%,0%,0%);fill-opacity:1;" />
<path d="M 81.917969 167.050781 C 78.488281 165.113281 74.253906 164.820312 70.589844 166.261719 C 69.554688 166.671875 69.042969 167.84375 69.453125 168.882812 C 69.859375 169.917969 71.03125 170.433594 72.070312 170.019531 C 74.574219 169.035156 77.585938 169.242188 79.929688 170.566406 C 81.324219 171.351562 82.503906 172.542969 83.324219 173.941406 C 80.394531 173.847656 77.390625 174.929688 75.269531 177.027344 C 74.480469 177.8125 74.472656 179.089844 75.257812 179.882812 C 75.65625 180.28125 76.171875 180.480469 76.691406 180.480469 C 77.207031 180.480469 77.722656 180.285156 78.117188 179.898438 C 80.019531 178.011719 83.179688 177.433594 85.628906 178.519531 C 86.308594 178.824219 87.097656 178.726562 87.6875 178.273438 C 88.277344 177.816406 88.566406 177.074219 88.441406 176.339844 C 87.785156 172.457031 85.34375 168.984375 81.917969 167.050781 Z M 81.917969 167.050781 " style=" stroke:none;fill-rule:nonzero;fill:rgb(0%,0%,0%);fill-opacity:1;" />
<path d="M 269.9375 180.105469 C 270.011719 180.824219 270.46875 181.453125 271.132812 181.746094 C 271.394531 181.859375 271.667969 181.914062 271.945312 181.914062 C 272.375 181.914062 272.796875 181.777344 273.152344 181.515625 C 276.546875 178.988281 280.898438 177.808594 285.109375 178.277344 C 286.214844 178.402344 287.214844 177.601562 287.339844 176.492188 C 287.464844 175.386719 286.667969 174.386719 285.558594 174.261719 C 281.699219 173.828125 277.738281 174.519531 274.238281 176.179688 C 274.726562 174.328125 275.738281 172.613281 277.160156 171.332031 C 279.453125 169.253906 282.757812 168.351562 285.792969 168.980469 C 286.886719 169.203125 287.953125 168.503906 288.179688 167.414062 C 288.40625 166.320312 287.703125 165.253906 286.613281 165.027344 C 282.339844 164.144531 277.679688 165.410156 274.449219 168.335938 C 271.214844 171.257812 269.484375 175.769531 269.9375 180.105469 Z M 269.9375 180.105469 " style=" stroke:none;fill-rule:nonzero;fill:rgb(0%,0%,0%);fill-opacity:1;" />
<path d="M 316.042969 322.472656 C 317.402344 319.761719 317.132812 316.769531 316.914062 314.367188 L 314.492188 287.632812 C 314.433594 286.996094 314.082031 286.425781 313.535156 286.09375 C 312.988281 285.761719 312.316406 285.703125 311.726562 285.945312 L 258.480469 307.472656 C 257.269531 307.960938 255.625 308.476562 253.882812 309.023438 C 246.828125 311.230469 238.050781 313.972656 237.515625 320.570312 C 236.996094 326.976562 237.9375 333.910156 238.84375 340.621094 C 239.289062 343.890625 239.707031 346.976562 239.957031 349.953125 C 240.007812 350.574219 240.347656 351.140625 240.875 351.480469 C 241.203125 351.691406 241.585938 351.804688 241.96875 351.804688 C 242.195312 351.804688 242.425781 351.765625 242.644531 351.6875 L 306.980469 328.835938 C 310.59375 327.550781 314.269531 326 316.042969 322.472656 Z M 243.726562 347.015625 C 243.476562 344.726562 243.160156 342.375 242.847656 340.078125 C 241.964844 333.582031 241.054688 326.867188 241.539062 320.894531 C 241.855469 317.015625 249.816406 314.523438 255.085938 312.875 C 256.910156 312.308594 258.632812 311.769531 259.996094 311.21875 L 310.714844 290.707031 L 312.890625 314.734375 C 313.109375 317.140625 313.214844 319.105469 312.433594 320.65625 C 311.332031 322.851562 308.585938 323.976562 305.628906 325.027344 Z M 243.726562 347.015625 " style=" stroke:none;fill-rule:nonzero;fill:rgb(0%,0%,0%);fill-opacity:1;" />
<path d="M 63.949219 356.871094 L 86.261719 362.351562 C 86.421875 362.390625 86.582031 362.40625 86.742188 362.40625 C 87.175781 362.40625 87.601562 362.269531 87.957031 362.003906 C 88.4375 361.640625 88.734375 361.078125 88.761719 360.472656 L 90.53125 317.769531 C 90.679688 314.136719 89.929688 311.476562 88.226562 309.632812 C 85.675781 306.863281 81.523438 306.484375 76.757812 306.292969 L 76.097656 306.265625 C 71.78125 306.085938 66.417969 305.863281 62.414062 308.882812 C 57.941406 312.253906 57.589844 317.777344 57.308594 322.21875 L 57.234375 323.332031 C 57.054688 325.914062 56.917969 328.550781 56.789062 331.097656 C 56.53125 336.09375 56.265625 341.261719 55.644531 346.222656 C 55.640625 346.261719 55.636719 346.296875 55.636719 346.332031 C 55.519531 348.019531 55.355469 350.332031 56.472656 352.371094 C 58.023438 355.210938 61.144531 356.183594 63.949219 356.871094 Z M 59.660156 346.667969 C 60.292969 341.578125 60.5625 336.355469 60.824219 331.304688 C 60.953125 328.773438 61.085938 326.15625 61.265625 323.613281 L 61.339844 322.476562 C 61.605469 318.304688 61.855469 314.363281 64.84375 312.109375 C 67.691406 309.960938 72.066406 310.140625 75.929688 310.304688 L 76.597656 310.328125 C 80.449219 310.484375 83.757812 310.742188 85.257812 312.371094 C 86.195312 313.386719 86.597656 315.097656 86.496094 317.601562 L 84.828125 357.839844 L 64.914062 352.949219 C 62.855469 352.445312 60.78125 351.832031 60.015625 350.433594 C 59.515625 349.515625 59.554688 348.238281 59.660156 346.667969 Z M 59.660156 346.667969 " style=" stroke:none;fill-rule:nonzero;fill:rgb(0%,0%,0%);fill-opacity:1;" />
</g>
</svg>